<?xml version="1.0" encoding="utf-8"?>
<!-- Generator: Adobe Illustrator 28.1.0, SVG Export Plug-In . SVG Version: 6.00 Build 0)  -->
<svg version="1.1" id="Layer_1" xmlns="http://www.w3.org/2000/svg" xmlns:xlink="http://www.w3.org/1999/xlink" x="0px" y="0px"
	 viewBox="0 0 48 48" style="enable-background:new 0 0 48 48;" xml:space="preserve">
<style type="text/css">
	.st0{fill:#7ADB78;}
</style>
<path class="st0" d="M12,0h24c6.63,0,12,5.37,12,12v24c0,6.63-5.37,12-12,12H12C5.37,48,0,42.63,0,36V12C0,5.37,5.37,0,12,0z"/>
<path d="M20.24,38.42c-0.58,0.03-1.05-0.16-1.52-0.33c-2.58-0.96-4.87-2.36-6.8-4.34c-1.65-1.69-2.84-3.68-3.66-5.9
	c-0.4-1.08-0.63-2.2-0.78-3.34c-0.06-0.49-0.18-0.54-0.64-0.35c-0.25,0.1-0.52,0.19-0.78,0.2c-0.79,0.02-1.28-0.76-0.93-1.47
	c0.05-0.1,0.11-0.21,0.19-0.3c0.97-1.07,1.92-2.16,2.92-3.2c0.67-0.7,1.66-0.64,2.3,0.08c0.56,0.63,1.09,1.3,1.65,1.94
	c0.3,0.35,0.62,0.68,0.93,1.02c0.25,0.28,0.39,0.61,0.26,0.97c-0.15,0.41-0.43,0.73-0.89,0.78c-0.17,0.02-0.37-0.02-0.52-0.1
	c-0.36-0.19-0.7-0.11-1.05-0.01c-0.06,0.02-0.12,0.16-0.12,0.23c0.03,0.32,0.06,0.65,0.13,0.96c0.61,2.61,1.92,4.81,3.85,6.66
	c0.94,0.9,2,1.64,3.17,2.2c0.54,0.26,1.14,0.4,1.7,0.61c0.11,0.04,0.21,0.12,0.31,0.18c-0.06,0.09-0.1,0.21-0.18,0.28
	c-0.55,0.51-0.54,1.15-0.4,1.81c0.1,0.49,0.32,0.92,0.7,1.26C20.15,38.3,20.18,38.34,20.24,38.42z M35.44,18.16
	c-0.23,0-0.46-0.03-0.68,0.01c-0.66,0.11-0.96,0.82-0.59,1.37c0.13,0.19,0.29,0.37,0.44,0.55c0.78,0.95,1.56,1.9,2.35,2.85
	c0.2,0.24,0.38,0.51,0.61,0.73c0.63,0.59,1.25,0.62,1.95-0.06c0.15-0.15,0.28-0.33,0.41-0.5c0.7-0.85,1.41-1.7,2.11-2.55
	c0.29-0.35,0.61-0.68,0.83-1.06c0.32-0.56-0.04-1.19-0.69-1.24c-0.47-0.03-0.94-0.01-1.41-0.01c-0.78,0-0.76-0.01-1.06-0.72
	c-1.52-3.56-3.83-6.46-7.07-8.61c-1.44-0.95-3.01-1.63-4.68-2.08c-0.63-0.17-0.89,0.05-1.1,0.68c-0.2,0.58-0.24,1.2-0.09,1.82
	c0.11,0.46,0.36,0.75,0.82,0.87c0.96,0.26,1.85,0.67,2.71,1.15c1.64,0.93,3.04,2.16,4.12,3.71c0.62,0.89,1.14,1.84,1.7,2.77
	c0.13,0.23,0.08,0.28-0.18,0.29c-0.16,0.01-0.33,0-0.49,0C35.44,18.14,35.44,18.15,35.44,18.16z M21.59,6.44
	c-1.78,0.28-3.48,0.83-5.07,1.66c-1.52,0.8-2.89,1.81-4.14,3c-1.78,1.69-3.09,3.69-4,5.96c-0.07,0.18-0.13,0.45-0.05,0.61
	c0.13,0.24,0.41,0.08,0.62,0.04c0.43-0.08,0.86-0.18,1.28,0c0.25,0.1,0.47,0.26,0.7,0.4c0.35,0.21,0.41,0.2,0.6-0.17
	c0.28-0.54,0.52-1.11,0.84-1.63c0.83-1.34,1.87-2.49,3.09-3.5c1.44-1.18,3.01-2.09,4.79-2.64c1.4-0.44,2.84-0.59,4.31-0.51
	c0.56,0.03,0.83-0.24,0.85-0.8c0.01-0.42,0.02-0.83,0.06-1.24c0.06-0.63-0.31-1.3-1.09-1.28c-0.33,0.01-0.67-0.03-0.97-0.04
	C22.78,6.35,22.17,6.35,21.59,6.44z M28.59,38.06c1.53-0.6,3.06-1.2,4.45-2.1c1.15-0.75,2.24-1.56,3.1-2.64
	c0.63-0.78,1.24-1.57,1.84-2.37c0.93-1.26,1.53-2.68,1.9-4.19c0.14-0.56,0-1.04-0.49-1.39c-0.16-0.11-0.33-0.17-0.5-0.05
	c-0.41,0.26-0.79,0.16-1.16-0.08c-0.5-0.32-0.63-0.31-1,0.17c-0.1,0.13-0.18,0.3-0.22,0.46c-0.39,1.63-1.16,3.06-2.18,4.38
	c-1.64,2.12-3.7,3.6-6.31,4.28c-0.09,0.02-0.19,0.07-0.28,0.11c-0.2,0.09-0.22,0.23-0.1,0.39c0.11,0.15,0.24,0.3,0.35,0.45
	c0.54,0.71,0.54,1.48-0.02,2.19c-0.11,0.14-0.23,0.28-0.37,0.45C27.97,38.25,28.29,38.18,28.59,38.06z M21.24,37.7
	c0.9,0.81,1.8,1.62,2.7,2.43c0.46,0.42,0.9,0.87,1.38,1.25c0.44,0.35,0.97,0.41,1.48,0.17c0.76-0.36,0.96-1.42,0.41-2.06
	c-0.26-0.3-0.55-0.57-0.81-0.87c-0.24-0.27-0.23-0.36-0.01-0.62c0.09-0.11,0.2-0.21,0.29-0.32c0.34-0.41,0.59-0.83,0.47-1.41
	c-0.09-0.44-0.39-0.7-0.72-0.94c-0.38-0.28-0.4-0.42-0.12-0.8c0.08-0.1,0.17-0.19,0.25-0.28c0.22-0.25,0.45-0.49,0.66-0.76
	c0.41-0.52,0.37-1.28-0.08-1.76c-0.51-0.56-1.33-0.65-1.93-0.15c-0.59,0.49-1.14,1.03-1.71,1.54c-0.85,0.77-1.71,1.53-2.56,2.3
	c-0.27,0.24-0.45,0.55-0.43,0.88C20.52,36.94,20.84,37.34,21.24,37.7z M28.71,25.78c0.76-0.7,1.39-1.52,1.78-2.49
	c0.55-1.36,0.66-2.77,0.34-4.2c-0.18-0.78-0.45-1.53-0.95-2.16c-0.27-0.33-0.76-0.35-1.12-0.07c-0.32,0.24-0.38,0.63-0.12,0.98
	c0.46,0.61,0.68,1.3,0.76,2.06c0.22,2.14-0.42,3.94-2.11,5.32c-0.18,0.15-0.4,0.24-0.61,0.35c-0.02-0.02-0.03-0.04-0.05-0.06
	c0.04-0.09,0.08-0.17,0.11-0.26c0.12-0.29,0.01-0.58-0.26-0.74c-0.26-0.15-0.47-0.12-0.68,0.16c-0.43,0.56-0.85,1.12-1.25,1.71
	c-0.33,0.49-0.19,0.95,0.33,1.22c0.56,0.29,1.13,0.57,1.7,0.85c0.36,0.18,0.68,0.08,0.92-0.26c0.23-0.32,0.2-0.65-0.08-0.93
	c-0.09-0.09-0.18-0.17-0.23-0.21C27.7,26.59,28.24,26.22,28.71,25.78z M18.45,25.6c1.11,1.27,2.56,1.91,4.21,2.11
	c0.35,0.04,0.56-0.09,0.7-0.39c0.13-0.29,0.09-0.74-0.13-0.91c-0.14-0.11-0.34-0.16-0.52-0.19c-1.12-0.19-2.13-0.62-2.97-1.39
	c-1.12-1.04-1.6-2.37-1.63-3.86c-0.02-0.92,0.1-1.84,0.63-2.65c0.12-0.19,0.26-0.37,0.39-0.55c0.29-0.42,0.18-0.81-0.3-0.99
	c-0.45-0.18-0.81-0.08-1.09,0.31c-0.8,1.11-1.08,2.37-1.1,3.8C16.64,22.62,17.25,24.23,18.45,25.6z M25.57,15.47
	c-0.38,0.18-0.47,0.43-0.31,0.85c0.12,0.32,0.33,0.41,0.73,0.3c0.71-0.19,1.41-0.38,2.12-0.56c0.22-0.06,0.39-0.17,0.42-0.4
	c0.1-0.69,0.05-1.37-0.15-2.04c-0.08-0.25-0.38-0.39-0.66-0.37c-0.3,0.02-0.38,0.24-0.45,0.47c-0.02,0.08-0.02,0.16-0.03,0.26
	c-0.19-0.08-0.37-0.16-0.55-0.24c-1.58-0.71-3.21-0.8-4.86-0.28c-0.95,0.3-1.8,0.8-2.53,1.47c-0.11,0.1-0.22,0.29-0.22,0.44
	c0.02,0.48,0.62,0.8,1.05,0.58c0.2-0.1,0.39-0.23,0.58-0.35c1.02-0.66,2.11-1.06,3.34-1c0.72,0.03,1.42,0.15,2.1,0.59
	C25.93,15.31,25.75,15.39,25.57,15.47z M25.74,20.36c0,0.06,0,0.13,0,0.19c0,0.61-0.01,1.23,0,1.84c0.01,0.35,0.29,0.62,0.62,0.63
	c0.36,0.02,0.6-0.19,0.65-0.58c0.02-0.16,0.02-0.32,0.02-0.49c0-1.2,0-2.4,0-3.6c0-0.35-0.28-0.57-0.71-0.57
	c-0.32,0-0.58,0.26-0.58,0.59C25.74,19.04,25.74,19.7,25.74,20.36C25.74,20.36,25.74,20.36,25.74,20.36z M25.02,22.94
	C24.75,23.1,24.3,23,24.1,22.71c-0.11-0.16-0.17-0.36-0.27-0.53c-0.04-0.07-0.12-0.15-0.18-0.15c-0.65,0.02-1.3,0.05-1.87,0.07
	c-0.18,0.29-0.31,0.55-0.49,0.77c-0.2,0.24-0.52,0.25-0.81,0.08c-0.24-0.14-0.33-0.35-0.21-0.66c0.5-1.3,1.01-2.61,1.55-3.9
	c0.23-0.56,0.63-0.71,1.22-0.61c0.37,0.07,0.55,0.34,0.68,0.64c0.53,1.22,1.05,2.45,1.57,3.68C25.42,22.44,25.32,22.76,25.02,22.94z
	 M23.46,21.06c-0.26-0.65-0.49-1.25-0.72-1.85c-0.02,0-0.05,0-0.07,0.01c-0.23,0.61-0.45,1.23-0.68,1.85
	C22.47,21.06,22.93,21.06,23.46,21.06z"/>
</svg>
