<?xml version="1.0" encoding="utf-8"?>
<!-- Generator: Adobe Illustrator 28.1.0, SVG Export Plug-In . SVG Version: 6.00 Build 0)  -->
<svg version="1.1" id="Layer_1" xmlns="http://www.w3.org/2000/svg" xmlns:xlink="http://www.w3.org/1999/xlink" x="0px" y="0px"
	 viewBox="0 0 48 48" style="enable-background:new 0 0 48 48;" xml:space="preserve">
<style type="text/css">
	.st0{fill:#FF776F;}
</style>
<path class="st0" d="M12,0h24c6.63,0,12,5.37,12,12v24c0,6.63-5.37,12-12,12H12C5.37,48,0,42.63,0,36V12C0,5.37,5.37,0,12,0z"/>
<path d="M33.04,30.99c0.71-0.38,1.27-0.93,1.73-1.57c0.44-0.61,0.89-1.21,1.26-1.85c0.78-1.34,1.1-2.82,1.25-4.35
	c0.23-2.37-0.22-4.61-1.25-6.73c-0.86-1.76-2.05-3.28-3.56-4.54c-1.85-1.54-3.95-2.53-6.3-3c-1.34-0.27-2.69-0.24-4.04-0.06
	c-1.49,0.2-2.9,0.63-4.25,1.29c-2.21,1.07-3.95,2.66-5.32,4.69c-1.06,1.57-1.74,3.27-2.06,5.11c-0.52,3-0.07,5.84,1.56,8.45
	c0.04,0.06,0.07,0.14,0.12,0.19c0.2,0.23,0.19,0.46,0.12,0.77c-0.09,0.37-0.21,0.63-0.6,0.7c-0.07,0.01-0.13,0.07-0.22,0.13
	c-0.27-0.43-0.55-0.85-0.8-1.29c-1.66-2.94-2.01-6.11-1.5-9.39c0.44-2.84,1.79-5.25,3.72-7.35c1.97-2.15,4.4-3.56,7.21-4.31
	c0.7-0.19,1.44-0.26,2.15-0.43c1.72-0.4,3.39-0.06,5.06,0.35c1.93,0.48,3.72,1.28,5.29,2.5c2.53,1.98,4.38,4.45,5.43,7.52
	c0.8,2.33,0.78,4.68,0.43,7.08c-0.3,2.08-1.31,3.81-2.49,5.49c-0.32,0.46-0.64,0.64-1.19,0.6c-0.57-0.04-1.15,0.04-1.72,0.07
	C33.04,31.03,33.04,31.01,33.04,30.99z M27.01,42.92c0.21,0.16,0.42,0.13,0.6-0.05c0.19-0.2,0.35-0.41,0.53-0.62
	c0.13-0.15,0.12-0.31,0.01-0.47c-0.17-0.24-0.35-0.46-0.5-0.7c-0.04-0.07-0.07-0.19-0.04-0.26c0.15-0.38,0.34-0.76,0.49-1.14
	c0.06-0.14,0.12-0.22,0.28-0.24c0.29-0.05,0.58-0.13,0.86-0.21c0.15-0.04,0.27-0.14,0.27-0.33c-0.01-0.3,0-0.6-0.01-0.89
	c-0.01-0.2-0.11-0.33-0.32-0.36c-0.28-0.04-0.55-0.09-0.83-0.12c-0.13-0.01-0.18-0.06-0.22-0.18c-0.15-0.41-0.31-0.82-0.48-1.23
	c-0.05-0.12-0.05-0.19,0.05-0.28c0.2-0.2,0.39-0.43,0.57-0.65c0.11-0.12,0.12-0.25,0-0.38c-0.19-0.22-0.36-0.45-0.54-0.68
	c-0.21-0.26-0.31-0.29-0.58-0.12c-0.32,0.2-0.62,0.42-0.89,0.61c-0.51-0.19-1.02-0.38-1.53-0.58c-0.06-0.02-0.1-0.12-0.12-0.19
	c-0.06-0.33-0.12-0.65-0.16-0.98c-0.02-0.18-0.11-0.25-0.28-0.25c-0.33,0-0.66,0-0.99-0.01c-0.19,0-0.3,0.08-0.33,0.27
	c-0.05,0.32-0.11,0.64-0.18,0.95c-0.02,0.08-0.08,0.18-0.14,0.2c-0.48,0.19-0.97,0.37-1.49,0.57c-0.23-0.17-0.52-0.38-0.81-0.59
	c-0.14-0.1-0.27-0.09-0.39,0.02c-0.2,0.19-0.41,0.38-0.61,0.58c-0.28,0.28-0.28,0.3-0.05,0.61c0.2,0.26,0.42,0.5,0.59,0.69
	c-0.2,0.46-0.41,0.91-0.59,1.36c-0.05,0.14-0.11,0.2-0.26,0.22c-0.29,0.03-0.57,0.07-0.86,0.12c-0.24,0.04-0.37,0.17-0.35,0.44
	c0.02,0.25,0.01,0.49,0,0.74c-0.02,0.26,0.1,0.41,0.34,0.46c0.34,0.07,0.68,0.13,1.02,0.21c0.06,0.01,0.15,0.06,0.17,0.11
	c0.19,0.48,0.37,0.96,0.57,1.47c-0.09,0.1-0.23,0.26-0.36,0.43c-0.49,0.6-0.48,0.72,0.09,1.27c0.02,0.02,0.05,0.05,0.07,0.07
	c0.36,0.33,0.58,0.34,0.96,0.03c0.22-0.18,0.41-0.4,0.57-0.55c0.46,0.18,0.9,0.36,1.35,0.51c0.15,0.05,0.2,0.11,0.22,0.25
	c0.06,0.34,0.12,0.69,0.21,1.02c0.02,0.09,0.14,0.21,0.22,0.22c0.31,0.04,0.63,0.03,0.94,0.04c0.21,0,0.32-0.11,0.36-0.32
	c0.05-0.31,0.12-0.62,0.17-0.93c0.02-0.15,0.09-0.22,0.24-0.27c0.45-0.14,0.89-0.31,1.36-0.48C26.44,42.49,26.73,42.71,27.01,42.92z
	 M23.77,41.61c-1.76,0.02-3.29-1.42-3.32-3.13c-0.03-1.76,1.38-3.27,3.11-3.28c1.67-0.01,3.24,1.24,3.27,3.2
	C26.86,40.12,25.45,41.59,23.77,41.61z M25.01,32.16c0.11,0.11,0.21,0.13,0.36,0.09c0.41-0.11,0.82-0.23,1.24-0.29
	c0.69-0.1,1.33-0.27,1.9-0.71c0.29-0.22,0.66-0.29,1.04-0.26C29.71,31,29.9,31,30.04,30.93c0.53-0.26,1.05-0.54,1.58-0.81
	c0.33-0.16,0.64-0.39,0.99-0.45c0.75-0.13,1.34-0.48,1.77-1.09c0.88-1.24,1.55-2.58,1.87-4.07c0.69-3.26,0.01-6.25-1.78-9.01
	c-1.04-1.61-2.42-2.91-4.04-3.94c-1.49-0.95-3.1-1.61-4.86-1.81c-4.15-0.48-7.77,0.71-10.73,3.7c-2.18,2.21-3.47,4.84-3.67,7.97
	c-0.16,2.52,0.52,4.8,1.87,6.89c0.44,0,0.87-0.02,1.29,0.01c0.2,0.02,0.41,0.11,0.57,0.23c0.36,0.29,0.52,0.72,0.66,1.16
	c0.02,0.07,0.06,0.16,0.12,0.2c0.23,0.15,0.47,0.29,0.74,0.45c0.17-0.16,0.37-0.34,0.55-0.51c-0.36-0.31-0.69-0.61-1.04-0.9
	c-0.52-0.44-1.08-0.8-1.77-0.91c-0.1-0.02-0.22-0.1-0.29-0.19c-0.27-0.35-0.54-0.7-0.77-1.08c-1-1.63-1.28-3.44-1.19-5.31
	c0.07-1.58,0.5-3.08,1.24-4.49c0.13-0.25,0.31-0.47,0.44-0.67c0.35,0.27,0.64,0.53,0.95,0.74c0.24,0.16,0.43,0.11,0.55-0.08
	c0.13-0.2,0.08-0.4-0.18-0.55c-0.33-0.19-0.68-0.36-1.05-0.55c0.03-0.05,0.06-0.18,0.13-0.27c0.27-0.37,0.55-0.73,0.84-1.09
	c0.78-0.98,1.74-1.78,2.81-2.41c1.1-0.65,2.29-1.09,3.54-1.41c2.58-0.64,5.07-0.37,7.44,0.74c2.52,1.18,4.52,2.97,5.81,5.48
	c0.65,1.26,1.13,2.59,1.27,4.01c0.21,2.18-0.18,4.25-1.19,6.2c-0.26,0.5-0.59,0.93-1.15,1.16c-0.44,0.18-0.85,0.46-1.25,0.73
	c-1.62,1.1-3.38,1.86-5.29,2.26c-0.81,0.17-1.64,0.29-2.4,0.42C24.59,31.8,24.81,31.97,25.01,32.16z M18.23,34.03
	c-0.07-0.09-0.16-0.16-0.19-0.26c-0.13-0.35-0.2-0.74-0.51-1.02c-0.23,0.26-0.42,0.55-0.68,0.77c-0.19,0.17-0.23,0.3-0.17,0.53
	c0.49,2-1.29,3.93-3.31,3.55c-1.2-0.22-2.03-0.94-2.35-2.14c-0.33-1.21,0.13-2.4,1.16-3.15c0.79-0.58,1.67-0.72,2.61-0.46
	c0.1,0.03,0.25,0.06,0.3,0.01c0.29-0.28,0.55-0.58,0.84-0.9c-0.36-0.28-0.84-0.37-1.25-0.48c-0.11-0.42-0.2-0.8-0.32-1.17
	c-0.02-0.07-0.15-0.16-0.23-0.16c-0.22-0.02-0.44,0.01-0.66,0.01c-0.13,0-0.19,0.06-0.21,0.19c-0.06,0.38-0.14,0.77-0.21,1.17
	c-0.65,0.08-1.21,0.39-1.75,0.74c-0.06,0.04-0.2,0.03-0.26-0.01c-0.24-0.17-0.46-0.35-0.68-0.54c-0.11-0.09-0.2-0.11-0.3,0
	c-0.17,0.19-0.36,0.36-0.52,0.56c-0.04,0.05-0.06,0.19-0.03,0.24c0.21,0.34,0.44,0.66,0.65,0.97c-0.12,0.29-0.31,0.58-0.35,0.89
	c-0.06,0.43-0.27,0.53-0.66,0.57c-0.64,0.05-0.67,0.11-0.68,0.75c0,0.12,0.01,0.24,0.01,0.36c0,0.18,0.1,0.29,0.27,0.31
	c0.24,0.04,0.49,0.06,0.73,0.12c0.09,0.02,0.2,0.08,0.23,0.15c0.18,0.43,0.34,0.86,0.52,1.32c-0.08,0.1-0.2,0.25-0.32,0.39
	c-0.48,0.59-0.48,0.7,0.08,1.24c0.03,0.03,0.07,0.05,0.1,0.08c0.11,0.11,0.24,0.13,0.36,0.02c0.26-0.22,0.52-0.45,0.79-0.68
	c0.53,0.34,1.07,0.7,1.74,0.82c0.05,0.01,0.1,0.11,0.12,0.18c0.07,0.26,0.13,0.53,0.18,0.79c0.03,0.15,0.11,0.2,0.27,0.19
	c0.19-0.01,0.39-0.02,0.59,0c0.24,0.03,0.33-0.08,0.36-0.3c0.04-0.3,0.1-0.6,0.14-0.9c0.62-0.11,1.19-0.31,1.71-0.65
	c0.09-0.06,0.23-0.02,0.37-0.03c0-0.01,0.02-0.06,0.02-0.11c0.05-0.57,0.32-1.01,0.77-1.35c0.14-0.11,0.23-0.29,0.31-0.45
	c0.13-0.26,0.23-0.54,0.34-0.82c0.02-0.04,0.01-0.1,0-0.15c-0.06-0.44-0.05-0.86,0.12-1.28C18.28,34.02,18.25,34.03,18.23,34.03z
	 M16.64,21.22c0.05,0,0.13,0,0.14,0.03c0.11,0.22,0.34,0.34,0.32,0.67c-0.05,1.22-0.03,2.45-0.04,3.67c0,0.17-0.03,0.33-0.04,0.49
	c-0.3,0.05-0.57,0.09-0.84,0.12c-0.23,0.03-0.4,0.16-0.5,0.35c-0.05,0.1-0.09,0.24-0.06,0.33c0.02,0.06,0.19,0.08,0.29,0.09
	c0.98,0.01,1.96,0.01,2.93,0c0.12,0,0.32-0.04,0.33-0.1c0.03-0.12,0-0.29-0.07-0.4c-0.07-0.11-0.21-0.19-0.34-0.23
	c-0.21-0.06-0.44-0.07-0.65-0.1c-0.39-0.07-0.4-0.07-0.4-0.46c-0.01-1.33-0.03-2.65-0.01-3.98c0-0.16,0.2-0.43,0.33-0.44
	c0.47-0.05,0.94-0.02,1.45-0.02c-0.04,0.12-0.07,0.22-0.11,0.32c-0.33,0.79-0.67,1.58-0.99,2.38c-0.23,0.56-0.08,0.96,0.43,1.28
	c0.77,0.48,1.7,0.43,2.4-0.14c0.26-0.21,0.45-0.5,0.25-0.94c-0.34-0.73-0.66-1.47-0.99-2.21c-0.09-0.21-0.18-0.42-0.28-0.63
	c0.14-0.12,0.32-0.22,0.22-0.44c-0.1-0.22-0.26-0.32-0.5-0.32c-0.07,0-0.14-0.01-0.2-0.01c-0.52,0-1.04,0.01-1.56,0.02
	c-0.16,0-0.25-0.03-0.27-0.21c-0.01-0.12-0.05-0.23-0.1-0.34c-0.08-0.19-0.25-0.24-0.44-0.23c-0.19,0-0.27,0.12-0.31,0.28
	c-0.02,0.08-0.05,0.16-0.07,0.24c-0.06,0.18-0.16,0.27-0.37,0.26c-0.54-0.02-1.07-0.01-1.61-0.01c-0.13,0-0.27-0.01-0.37,0.05
	c-0.13,0.07-0.27,0.19-0.31,0.32c-0.06,0.17,0.08,0.27,0.24,0.33c0.03,0.01,0.05,0.04,0.08,0.07c-0.01,0.04-0.02,0.07-0.03,0.1
	c-0.39,0.91-0.79,1.82-1.18,2.74c-0.18,0.44-0.09,0.73,0.28,1.02c0.7,0.55,1.75,0.51,2.45-0.08c0.35-0.3,0.46-0.64,0.29-1.07
	c-0.23-0.58-0.46-1.15-0.69-1.73c-0.13-0.33-0.27-0.66-0.44-1.08C15.79,21.22,16.21,21.22,16.64,21.22z M19.79,22.1
	c0.03-0.01,0.05-0.01,0.08-0.02c0.34,0.77,0.67,1.55,1.02,2.34c-0.69,0-1.33,0-2.04,0C19.17,23.61,19.48,22.86,19.79,22.1z
	 M14.01,24.46c0.01-0.09,0-0.18,0.03-0.25c0.3-0.7,0.61-1.4,0.94-2.15c0.33,0.82,0.64,1.59,0.96,2.4
	C15.27,24.46,14.65,24.46,14.01,24.46z M23.45,11.43c-0.06,0.01-0.12,0.02-0.17,0.04c-1.01,0.24-1.91,0.69-2.54,1.54
	c-0.98,1.31-1.08,2.74-0.42,4.21c0.66,1.49,1.87,2.25,3.46,2.34c1.69,0.1,3.52-1.05,4.03-3.07c0.57-2.26-0.98-4.6-3.31-5.01
	c-0.41-0.07-0.41-0.07-0.38-0.5c0.02-0.19-0.08-0.27-0.25-0.27c-0.16,0-0.34-0.03-0.34,0.22c0,0.15,0,0.3,0,0.46
	C23.48,11.42,23.46,11.43,23.45,11.43z M26.59,15.25c-0.28,0-0.34,0.07-0.29,0.34c0.01,0.07,0.11,0.16,0.18,0.17
	c0.23,0.02,0.47,0.01,0.73,0.01c-0.05,0.92-0.4,1.76-1.14,2.32c-1.11,0.83-2.34,1.2-3.67,0.43c-1.08-0.62-1.69-1.54-1.78-2.78
	c0.25,0.02,0.45,0.05,0.66,0.05c0.14,0.01,0.25-0.04,0.24-0.22c-0.01-0.16-0.03-0.32-0.24-0.32c-0.21,0-0.42,0.02-0.63,0.03
	c-0.15-0.57,0.49-1.99,1.14-2.45c1.34-0.95,2.5-1.05,4.02-0.1c0.74,0.46,1.49,1.87,1.37,2.55C26.98,15.27,26.79,15.25,26.59,15.25z
	 M32.28,40.47c0.52,0,1.04,0,1.55,0c0.15,0,0.26-0.02,0.31-0.19c0.21-0.83,0.17-1.63-0.44-2.3c-0.29-0.32-0.63-0.59-0.96-0.87
	c-0.22-0.18-0.22-0.21,0-0.39c0.26-0.21,0.54-0.41,0.79-0.64c0.71-0.65,0.82-1.47,0.64-2.36c-0.05-0.26-0.21-0.35-0.46-0.3
	c-0.15,0.03-0.3,0.09-0.45,0.09c-0.92,0.01-1.83,0.01-2.75-0.01c-0.19,0-0.32,0.03-0.36,0.22c-0.19,0.83-0.03,1.86,0.66,2.41
	c0.22,0.17,0.44,0.35,0.66,0.52c0.31,0.24,0.29,0.29-0.03,0.5c-0.3,0.19-0.58,0.41-0.85,0.64c-0.11,0.1-0.17,0.27-0.21,0.42
	c-0.09,0.38-0.11,0.77-0.22,1.15c-0.11,0.4,0.03,0.72,0.2,1.04c0.03,0.05,0.12,0.09,0.19,0.09c0.57,0.01,1.14,0,1.71,0
	C32.28,40.48,32.28,40.47,32.28,40.47z M33.25,34.34c-0.69-0.01-1.38,0-2.06,0c-0.14,0-0.31,0-0.3,0.22
	c0.01,0.19,0.08,0.35,0.29,0.35c0.75,0,1.49-0.02,2.24-0.03c0.04,0,0.07-0.03,0.17-0.07c-0.2,0.82-0.98,1.04-1.42,1.61
	c-0.39-0.34-0.81-0.63-1.14-0.99c-0.38-0.42-0.43-0.95-0.27-1.49c0.02-0.07,0.15-0.15,0.24-0.16c0.68-0.05,1.37-0.08,2.05-0.12
	c0.14-0.01,0.36-0.09,0.4-0.04c0.1,0.15,0.13,0.34,0.16,0.52c0.02,0.1,0,0.2,0,0.28C33.49,34.4,33.37,34.34,33.25,34.34z
	 M33.15,38.29c0.45,0.46,0.6,1.11,0.44,1.62c-0.06-0.04-0.11-0.07-0.16-0.11c-0.1-0.08-0.19-0.18-0.29-0.25
	c-0.79-0.62-1.64-0.54-2.31,0.22c-0.03,0.04-0.07,0.08-0.11,0.13c-0.22-0.22-0.19-0.47-0.13-0.72c0.12-0.5,0.41-0.89,0.78-1.23
	c0.23-0.2,0.49-0.37,0.74-0.56C32.46,37.7,32.83,37.97,33.15,38.29z M25.45,22.91c0.28-0.63,0.18-1.23-0.26-1.74
	c-0.49-0.57-1.17-0.78-1.85-0.48c-0.48,0.21-0.74,0.09-1.1-0.19c-1.35-1.02-2.72-2-4.09-2.99c-0.49-0.35-0.98-0.71-1.48-1.04
	c-0.22-0.15-0.41-0.07-0.51,0.16c-0.11,0.23,0.04,0.37,0.2,0.5c0.71,0.54,1.42,1.08,2.14,1.61c1.19,0.88,2.38,1.75,3.58,2.62
	c0.18,0.13,0.37,0.26,0.18,0.53c-0.05,0.08-0.04,0.2-0.05,0.3c-0.02,1,0.71,1.75,1.84,1.75C24.63,23.9,25.16,23.57,25.45,22.91z
	 M23.88,23.24c-0.5,0.01-0.94-0.43-0.95-0.94c-0.02-0.52,0.47-1.02,0.99-1.03c0.49-0.01,0.96,0.47,0.97,0.99
	C24.9,22.76,24.42,23.23,23.88,23.24z M29.78,26.51c0.18,0,0.24-0.1,0.19-0.24c-0.1-0.3-0.22-0.6-0.33-0.9
	c-0.28-0.77-0.56-1.53-0.83-2.3c-0.07-0.21-0.18-0.27-0.4-0.17c-0.42,0.19-0.85,0.34-1.27,0.52c-0.46,0.19-0.79,0.53-1.01,0.97
	c-0.31,0.63-0.29,1.32-0.28,2c0,0.06,0.1,0.16,0.15,0.16c0.35,0,0.71-0.02,1.07-0.03c0.02-0.25,0.02-0.47,0.05-0.69
	c0.01-0.11-0.03-0.28,0.18-0.28c0.2,0.01,0.18,0.17,0.19,0.3c0.02,0.23,0.04,0.46,0.05,0.67C28.31,26.5,29.04,26.5,29.78,26.51z
	 M34.11,26.51c0.19,0,0.29-0.06,0.28-0.26c-0.02-0.35-0.02-0.7-0.08-1.04c-0.09-0.56-0.24-1.13-0.75-1.45
	c-0.61-0.37-1.27-0.66-1.93-0.99c-0.09,0.2-0.17,0.33-0.22,0.47c-0.25,0.67-0.5,1.33-0.75,2c-0.08,0.21-0.16,0.41-0.22,0.62
	c-0.13,0.43,0.01,0.61,0.44,0.62c0.39,0.01,0.78,0.02,1.17,0.02c0.21,0,0.42,0,0.65,0c0.02-0.27,0.02-0.52,0.06-0.77
	c0.01-0.08,0.12-0.15,0.18-0.22c0.06,0.06,0.16,0.12,0.18,0.19c0.06,0.25,0.09,0.5,0.14,0.8C33.56,26.51,33.83,26.51,34.11,26.51z
	 M39.21,9.92c-0.41-0.42-0.83-0.83-1.25-1.23c-0.53-0.51-1.07-1.01-1.61-1.52c-0.19-0.18-0.37-0.17-0.56,0
	c-0.23,0.21-0.46,0.4-0.69,0.6c-0.34,0.29-0.36,0.34-0.06,0.66c0.96,1.05,1.93,2.1,2.91,3.14c0.16,0.17,0.34,0.15,0.55-0.05
	c0.26-0.25,0.53-0.5,0.78-0.77c0.09-0.1,0.15-0.24,0.24-0.4C39.41,10.2,39.33,10.05,39.21,9.92z M36.02,8.54
	c-0.1,0.02-0.23-0.19-0.35-0.3c0.15-0.14,0.3-0.28,0.45-0.43c0.08,0.11,0.17,0.21,0.28,0.36C36.25,8.32,36.15,8.51,36.02,8.54z
	 M37.12,9.63c-0.06-0.14-0.13-0.28-0.16-0.42c-0.02-0.11,0.02-0.23,0.03-0.41c0.19,0.23,0.33,0.41,0.54,0.66
	C37.36,9.53,37.24,9.58,37.12,9.63z M38.21,10.83c-0.01,0.01-0.19-0.11-0.18-0.12c0.08-0.17,0.17-0.35,0.28-0.5
	c0.02-0.03,0.18,0.05,0.27,0.08c0.01,0.03,0.01,0.07,0.02,0.1C38.47,10.55,38.35,10.7,38.21,10.83z M28.29,19.59
	c0.01,0.08-0.01,0.18-0.06,0.24c-0.24,0.26-0.17,0.54-0.04,0.81c0.14,0.28,0.3,0.55,0.47,0.82c0.6,0.94,1.82,1.28,2.71,0.36
	c0.35-0.36,0.59-0.84,0.84-1.29c0.08-0.15,0.04-0.38,0.02-0.56c-0.02-0.15-0.13-0.29-0.14-0.44c-0.11-1.02-0.86-1.72-1.9-1.73
	C29.29,17.73,28.22,18.59,28.29,19.59z M29.04,19.33c0.18-0.44,0.46-0.73,1-0.71c0.39,0.01,0.78-0.04,1.06,0.33
	c0.33,0.44,0.47,0.92,0.31,1.43c-0.1,0.32-0.26,0.65-0.48,0.91c-0.46,0.54-1.23,0.47-1.63-0.12c-0.24-0.35-0.37-0.78-0.39-1.28
	C28.95,19.71,28.96,19.51,29.04,19.33z M32.14,32.82c0.05,0,0.1,0,0.15,0c1.04,0,2.07-0.01,3.11-0.02c0.29,0,0.42-0.12,0.44-0.35
	c0.02-0.25-0.15-0.48-0.39-0.52c-0.08-0.01-0.17-0.01-0.25-0.01c-1.23,0-2.46,0.01-3.7,0.01c-0.79,0-1.58,0-2.37-0.01
	c-0.22,0-0.45,0.04-0.54,0.26c-0.06,0.13-0.05,0.32,0,0.45c0.04,0.09,0.2,0.18,0.31,0.19C29.98,32.83,31.06,32.83,32.14,32.82
	C32.14,32.82,32.14,32.82,32.14,32.82z M29.09,41.81c0.06,0.15,0.13,0.21,0.29,0.2c0.8-0.02,1.6-0.03,2.4-0.03
	c1.17,0,2.35,0.02,3.52,0.03c0.34,0,0.54-0.18,0.55-0.47c0-0.25-0.2-0.42-0.53-0.43c-0.24-0.01-0.48,0-0.71,0
	c-1.66-0.01-3.31-0.02-4.97-0.03c-0.28,0-0.56,0-0.88,0C28.89,41.37,29.01,41.58,29.09,41.81z M34.72,40.54
	c0.55,0.14,0.62,0.09,0.65-0.41c0.01-0.14,0.01-0.27,0.01-0.41c0-1.82,0-3.64,0-5.46c0-0.28-0.03-0.56-0.04-0.84
	c-0.22,0-0.41,0-0.63,0C34.72,35.81,34.72,38.18,34.72,40.54z M17.77,30.75c-0.17-0.24-0.28-0.26-0.49-0.06
	c-0.32,0.3-0.62,0.63-0.93,0.94c-0.65,0.64-1.23,1.36-2.03,1.85c-0.1,0.06-0.17,0.18-0.25,0.28c-0.1,0.12-0.19,0.26-0.31,0.37
	c-0.2,0.2-0.21,0.31-0.01,0.52c0.24,0.26,0.44,0.3,0.63,0.12c0.51-0.49,1.01-0.98,1.51-1.47c0.62-0.6,1.25-1.2,1.87-1.8
	c0.09-0.09,0.17-0.2,0.27-0.3C17.93,31.02,17.86,30.88,17.77,30.75z M34.08,10.47c-0.04,0.04-0.02,0.19,0.03,0.24
	c0.18,0.18,0.39,0.33,0.57,0.51c0.42,0.42,0.83,0.85,1.26,1.29c0.05-0.05,0.13-0.11,0.2-0.18c0.18-0.18,0.35-0.38,0.54-0.53
	c0.19-0.15,0.18-0.28,0.06-0.45c-0.05-0.06-0.09-0.13-0.14-0.18c-0.53-0.57-1.06-1.14-1.62-1.73C34.66,9.81,34.36,10.14,34.08,10.47
	z M14.78,35.19c-0.2,0.09-0.39,0.21-0.6,0.27c-0.44,0.13-0.84-0.04-1.07-0.43c-0.22-0.37-0.17-0.76,0.17-1.08
	c0.17-0.16,0.4-0.25,0.59-0.38c0.05-0.03,0.11-0.08,0.12-0.14c0.01-0.03-0.06-0.11-0.11-0.12c-0.2-0.04-0.42-0.12-0.61-0.07
	c-0.65,0.16-0.99,0.64-1.09,1.28c-0.1,0.63,0.23,1.1,0.71,1.46c0.52,0.39,1.08,0.35,1.63,0.06c0.4-0.21,0.69-0.51,0.73-1.07
	C15.06,35.06,14.92,35.13,14.78,35.19z M18.97,31.04c0,0.22,0.11,0.36,0.3,0.42c0.86,0.27,1.73,0.53,2.6,0.79
	c0.17,0.05,0.27-0.03,0.39-0.15c0.17-0.17,0.4-0.29,0.61-0.42c0.05-0.03,0.12-0.04,0.18-0.06c-1.44-0.04-2.77-0.55-4.13-1.01
	C18.95,30.79,18.97,30.92,18.97,31.04z M29.16,33.4c-0.17,0-0.24,0.07-0.24,0.24c0,0.93-0.01,1.87,0,2.8c0,0.07,0.06,0.17,0.11,0.19
	c0.19,0.08,0.39,0.13,0.57,0.19c0-1.15,0-2.28,0-3.45C29.41,33.39,29.29,33.4,29.16,33.4z M21.6,32.91
	c-0.4-0.11-0.81-0.18-1.21-0.29c-0.49-0.14-0.96-0.34-1.45-0.47c-0.12-0.03-0.3,0.06-0.41,0.15c-0.06,0.04-0.06,0.23-0.01,0.31
	c0.13,0.21,0.3,0.4,0.46,0.6c0.12,0.16,0.25,0.16,0.42,0.05c0.39-0.26,0.8-0.25,1.2-0.02c0.16,0.09,0.32,0.19,0.49,0.27
	c0.05,0.03,0.13,0.06,0.18,0.04c0.16-0.07,0.32-0.15,0.48-0.23c0.05-0.03,0.08-0.09,0.17-0.19C21.78,33.03,21.7,32.94,21.6,32.91z
	 M30.17,25.28c0.1-0.17,0.22-0.32,0.28-0.5c0.06-0.16,0.12-0.38,0.05-0.51c-0.25-0.47-0.11-0.77,0.3-1.04
	c0.08-0.05,0.16-0.24,0.12-0.29c-0.06-0.09-0.21-0.18-0.32-0.19c-0.29-0.02-0.58-0.02-0.86,0c-0.12,0.01-0.3,0.05-0.34,0.14
	c-0.04,0.09,0.02,0.27,0.1,0.36c0.15,0.18,0.33,0.33,0.49,0.49C29.68,24.35,29.75,24.95,30.17,25.28z M22.38,6.81
	c-0.03,0.21,0.07,0.26,0.26,0.26c0.89,0,1.77,0.01,2.69,0.01c0-0.17,0-0.38,0-0.63c-0.97,0-1.92,0-2.92,0
	C22.4,6.56,22.4,6.69,22.38,6.81z M24.22,30.04c0-0.21,0.01-0.42,0-0.64c-0.01-0.2-0.14-0.32-0.33-0.32
	c-0.19-0.01-0.4,0.07-0.41,0.27c-0.02,0.45-0.01,0.91,0.04,1.37c0.02,0.22,0.24,0.27,0.44,0.25c0.18-0.02,0.26-0.15,0.27-0.31
	C24.24,30.45,24.23,30.24,24.22,30.04C24.23,30.04,24.23,30.04,24.22,30.04z M27.83,33.19c-0.11-0.24-0.2-0.44-0.29-0.66
	c-0.67,0.11-1.34,0.22-2.02,0.34c-0.05,0.01-0.13,0.12-0.12,0.18c0.01,0.08,0.05,0.2,0.12,0.23c0.19,0.11,0.41,0.2,0.63,0.3
	C26.62,33.19,27.15,32.93,27.83,33.19z M24.08,3.99c-0.02-0.11-0.15-0.19-0.22-0.29c-0.1,0.1-0.29,0.19-0.3,0.29
	c-0.04,0.52-0.04,1.03-0.02,1.55c0.01,0.16,0.11,0.35,0.32,0.32c0.2-0.02,0.27-0.18,0.27-0.37c-0.01-0.22,0-0.44,0-0.75
	C24.11,4.55,24.12,4.26,24.08,3.99z M21.34,4.81c0-0.25,0.02-0.49-0.01-0.74c-0.01-0.11-0.09-0.22-0.14-0.33
	c-0.12,0.08-0.26,0.15-0.35,0.25c-0.06,0.07-0.07,0.19-0.07,0.29c-0.01,0.36-0.02,0.73,0,1.09c0.01,0.12,0.07,0.25,0.14,0.34
	c0.06,0.07,0.18,0.14,0.27,0.13c0.06-0.01,0.15-0.14,0.15-0.23C21.34,5.35,21.33,5.08,21.34,4.81C21.33,4.81,21.34,4.81,21.34,4.81z
	 M22.28,4.8c0-0.25,0.01-0.49,0-0.74c-0.01-0.17-0.05-0.34-0.26-0.35c-0.21-0.01-0.27,0.16-0.27,0.33c-0.01,0.47-0.01,0.93-0.01,1.4
	c0,0.05,0.01,0.1,0.02,0.15c0.06,0.14,0.1,0.31,0.3,0.29c0.2-0.02,0.22-0.19,0.23-0.34C22.29,5.29,22.28,5.04,22.28,4.8
	C22.28,4.8,22.28,4.8,22.28,4.8z M22.6,4.78c0,0.21,0.01,0.42,0,0.63c-0.01,0.22,0.13,0.45,0.29,0.44c0.23-0.02,0.29-0.2,0.29-0.38
	c0.01-0.47,0-0.95,0-1.42c0-0.18-0.06-0.34-0.27-0.33c-0.19,0.01-0.28,0.15-0.28,0.33c-0.01,0.25,0,0.49,0,0.74
	C22.62,4.78,22.61,4.78,22.6,4.78z M25.97,4.87c-0.01-0.28,0-0.56-0.05-0.84c-0.02-0.12-0.14-0.3-0.24-0.32
	c-0.2-0.04-0.25,0.15-0.26,0.32c-0.01,0.2-0.01,0.41-0.01,0.61c0.01,0.31-0.01,0.62,0.04,0.91c0.02,0.11,0.19,0.2,0.29,0.29
	c0.07-0.11,0.19-0.21,0.21-0.33C25.99,5.32,25.96,5.09,25.97,4.87C25.96,4.87,25.97,4.87,25.97,4.87z M25.05,4.8
	c0-0.27,0.02-0.54-0.01-0.81c-0.01-0.11-0.15-0.2-0.22-0.3c-0.1,0.09-0.27,0.18-0.28,0.28c-0.03,0.52-0.02,1.05,0.01,1.57
	c0.01,0.11,0.18,0.27,0.29,0.28c0.18,0.02,0.26-0.16,0.26-0.34c0-0.23,0-0.46,0-0.69C25.08,4.8,25.06,4.8,25.05,4.8z M18.65,28.2
	c-0.11-0.04-0.31-0.02-0.39,0.06c-0.21,0.19-0.38,0.43-0.55,0.66c-0.12,0.16-0.14,0.33,0.04,0.47c0.21,0.17,0.37,0.18,0.55,0
	c0.17-0.17,0.34-0.36,0.49-0.55c0.07-0.08,0.1-0.19,0.17-0.33C18.85,28.4,18.77,28.25,18.65,28.2z M29.62,29.54
	c0.09,0.05,0.29-0.03,0.41-0.11c0.06-0.04,0.1-0.22,0.06-0.28c-0.2-0.32-0.41-0.64-0.65-0.93c-0.05-0.07-0.26-0.06-0.36-0.02
	c-0.11,0.04-0.18,0.17-0.26,0.25C29,28.93,29.24,29.3,29.62,29.54z M18.64,13.25c-0.15-0.21-0.32-0.41-0.48-0.62
	c-0.08-0.11-0.18-0.18-0.32-0.1c-0.15,0.08-0.32,0.19-0.24,0.36c0.14,0.32,0.32,0.63,0.53,0.91c0.06,0.08,0.29,0.09,0.42,0.06
	c0.1-0.03,0.18-0.18,0.27-0.28C18.74,13.44,18.71,13.33,18.64,13.25z M29.26,13.83c0.25-0.07,0.77-0.8,0.71-1.05
	c-0.02-0.11-0.15-0.21-0.26-0.28c-0.05-0.03-0.18-0.02-0.22,0.02c-0.23,0.27-0.47,0.54-0.67,0.83c-0.15,0.23,0.02,0.5,0.31,0.5
	C29.16,13.84,29.21,13.84,29.26,13.83z M26.37,4.76c0,0.28-0.01,0.56,0.01,0.84c0.01,0.08,0.11,0.22,0.16,0.22
	c0.1-0.01,0.21-0.08,0.29-0.15c0.05-0.04,0.05-0.14,0.05-0.22c0-0.39,0.02-0.78-0.01-1.17c-0.01-0.15-0.09-0.3-0.17-0.43
	c-0.03-0.06-0.15-0.09-0.22-0.08c-0.04,0-0.08,0.12-0.09,0.19c-0.01,0.27,0,0.54,0,0.81C26.39,4.76,26.38,4.76,26.37,4.76z
	 M34.79,22.23c0.16,0,0.32,0.01,0.48,0c0.24-0.02,0.26-0.24,0.26-0.4c0-0.09-0.14-0.26-0.23-0.27c-0.33-0.03-0.66-0.02-0.99,0.01
	c-0.2,0.02-0.26,0.19-0.25,0.38c0.01,0.18,0.13,0.27,0.3,0.28C34.5,22.24,34.64,22.23,34.79,22.23
	C34.79,22.23,34.79,22.23,34.79,22.23z M12.84,21.54c-0.14,0.01-0.29,0.01-0.43,0.03c-0.25,0.04-0.25,0.26-0.26,0.43
	c0,0.08,0.09,0.23,0.15,0.23c0.32,0.02,0.65,0.03,0.96,0c0.19-0.02,0.28-0.19,0.27-0.38c-0.01-0.18-0.11-0.3-0.31-0.31
	C13.1,21.55,12.97,21.55,12.84,21.54C12.84,21.55,12.84,21.55,12.84,21.54z M33.5,16.04c-0.05-0.04-0.2,0.02-0.29,0.07
	c-0.19,0.11-0.37,0.24-0.54,0.37c-0.15,0.12-0.19,0.28-0.1,0.45c0.09,0.17,0.26,0.21,0.41,0.14c0.23-0.12,0.44-0.27,0.65-0.43
	c0.06-0.04,0.07-0.14,0.12-0.26C33.68,16.26,33.61,16.12,33.5,16.04z M39.16,34.93c0-0.31-0.18-0.49-0.51-0.5
	c-0.38,0-0.56,0.14-0.56,0.43c0,0.32,0.12,0.42,0.54,0.42C39.01,35.29,39.16,35.19,39.16,34.93z M37.31,34.87
	c0-0.26-0.17-0.43-0.45-0.43c-0.34,0-0.54,0.16-0.54,0.43c-0.01,0.26,0.15,0.38,0.51,0.38C37.15,35.26,37.31,35.14,37.31,34.87z
	 M33.7,27.43c0.17,0,0.3-0.06,0.31-0.26c0.01-0.24-0.17-0.45-0.39-0.44c-0.2,0-0.33,0.09-0.31,0.31
	C33.3,27.27,33.46,27.44,33.7,27.43z M29.07,40.51c0.15,0.07,0.42,0.1,0.5,0.02c0.1-0.11,0.06-0.34,0.09-0.54
	c-0.26,0.04-0.45,0.08-0.74,0.13C28.97,40.27,28.98,40.48,29.07,40.51z M36.85,36.91c0.06-0.02,0.09-0.1,0.14-0.15
	c-0.07-0.05-0.15-0.16-0.2-0.14c-0.13,0.04-0.24,0.13-0.37,0.21C36.56,37.02,36.72,36.96,36.85,36.91z M23.43,15.48
	c0.03-0.8,0.05-1.59,0.08-2.39c0.01-0.19,0.07-0.35,0.3-0.38c0.24-0.03,0.32,0.14,0.34,0.32c0.06,0.55,0.09,1.1,0.15,1.65
	c0.02,0.2,0.08,0.39,0.15,0.57c0.08,0.21,0.05,0.55-0.11,0.72c-0.16,0.16-0.36,0.18-0.57,0.11C23.52,16,23.4,15.79,23.43,15.48z
	 M21.87,16.97c0.02-0.03-0.14-0.16-0.21-0.25c-0.15,0.14-0.3,0.26-0.43,0.42c-0.02,0.03,0.1,0.17,0.21,0.34
	C21.62,17.27,21.76,17.13,21.87,16.97z M21.42,13.71c-0.08,0.01-0.18,0.12-0.2,0.19c-0.03,0.15,0.29,0.51,0.4,0.46
	c0.1-0.04,0.16-0.16,0.21-0.2C21.83,13.91,21.61,13.68,21.42,13.71z M23.7,18.6c0.13-0.04,0.36-0.07,0.38-0.14
	c0.04-0.17-0.01-0.36-0.07-0.53c-0.01-0.04-0.29-0.04-0.29-0.03c-0.05,0.2-0.08,0.41-0.11,0.61C23.64,18.54,23.67,18.57,23.7,18.6z
	 M26.51,13.98c0.1-0.16,0-0.31-0.18-0.27c-0.13,0.03-0.29,0.12-0.35,0.23c-0.1,0.16,0.01,0.32,0.19,0.47
	C26.28,14.27,26.41,14.14,26.51,13.98z M26.15,16.79c-0.03-0.02-0.2,0.14-0.24,0.23c-0.04,0.12,0.27,0.37,0.43,0.35
	c0.08-0.01,0.14-0.1,0.27-0.21C26.43,17.01,26.3,16.87,26.15,16.79z M25.24,13.41c0.05,0.05,0.18,0.07,0.23,0.04
	c0.18-0.11,0.18-0.3,0.01-0.53C25.25,13.08,25.13,13.3,25.24,13.41z M22.17,12.88c0.04,0.17,0.07,0.34,0.12,0.51
	c0.01,0.03,0.15,0.03,0.21,0.01c0.04-0.01,0.09-0.12,0.07-0.15c-0.09-0.14-0.19-0.28-0.29-0.41C22.25,12.85,22.21,12.87,22.17,12.88
	z M22.34,17.76c-0.19,0.01-0.23,0.17-0.24,0.32c0,0.04,0.08,0.09,0.12,0.14c0.1-0.1,0.2-0.2,0.34-0.34
	C22.45,17.82,22.39,17.76,22.34,17.76z M25.58,18.2c-0.01-0.11,0-0.22-0.04-0.31c-0.03-0.06-0.14-0.07-0.22-0.1
	c-0.01,0.02-0.03,0.05-0.04,0.07c0.06,0.12,0.13,0.24,0.19,0.36C25.5,18.21,25.54,18.21,25.58,18.2z M23.9,21.81
	c-0.19-0.01-0.43,0.25-0.43,0.46c0,0.21,0.18,0.4,0.38,0.4c0.26,0,0.48-0.18,0.48-0.4C24.33,22.07,24.1,21.82,23.9,21.81z"/>
</svg>
