<?xml version="1.0" encoding="utf-8"?>
<!-- Generator: Adobe Illustrator 28.1.0, SVG Export Plug-In . SVG Version: 6.00 Build 0)  -->
<svg version="1.1" id="Layer_1" xmlns="http://www.w3.org/2000/svg" xmlns:xlink="http://www.w3.org/1999/xlink" x="0px" y="0px"
	 viewBox="0 0 48 48" style="enable-background:new 0 0 48 48;" xml:space="preserve">
<style type="text/css">
	.st0{fill:#AC6AFF;}
	.st1{fill:#FFFFFF;}
</style>
<path class="st0" d="M12,0h24c6.6,0,12,5.4,12,12v24c0,6.6-5.4,12-12,12H12C5.4,48,0,42.6,0,36V12C0,5.4,5.4,0,12,0z"/>
<path class="st1" d="M27.5,11.1c0,0.4,0,0.7,0,1c0,0.3,0,0.6,0,0.9c0,0.9,0.6,1.4,1.2,1.6c0.2,0.1,0.4,0.1,0.6,0.1
	c0.9,0,1.7,0,2.6,0c0,0,0,0,0.1,0c0,0.4,0,0.9,0,1.3c0,2.6,0,5.2,0,7.8c0,2.3,0,4.6,0,6.8c0,0.4,0,0.7-0.1,1.1c-0.2,0.6-0.9,1-1.5,1
	c-0.9,0-1.8-0.1-2.7-0.1c-3.3,0-6.6,0-9.9,0c-0.2,0-0.5,0-0.7,0c-0.8,0.1-1.6-0.4-1.8-1.3c0-0.1-0.1-0.3-0.1-0.5c0-4.8,0-9.6,0-14.4
	c0-1.3,0-2.6,0-3.9c0-1,0.6-1.6,1.6-1.7c0.4,0,0.7,0,1.1,0c3.1,0,6.2,0,9.4,0C27.3,11.1,27.4,11.1,27.5,11.1z M26.1,16
	c0.2,0,0.4,0,0.6,0c0.2,0,0.3-0.1,0.3-0.3c0-0.3,0-0.5,0-0.8c0-0.2,0-0.3-0.3-0.3c-0.2,0-0.5,0-0.7,0c-0.1-0.2-0.2-0.4-0.3-0.7
	c0.2-0.2,0.3-0.3,0.5-0.5c0.2-0.2,0.1-0.2,0-0.4c-0.2-0.2-0.4-0.4-0.6-0.6c-0.1-0.1-0.2-0.2-0.4,0c-0.2,0.2-0.4,0.4-0.7,0.6
	c-0.2-0.2-0.4-0.2-0.7-0.3c0-0.2,0-0.5,0-0.7c0-0.2-0.1-0.3-0.3-0.3c-0.3,0-0.6,0-0.8,0c-0.2,0-0.3,0.1-0.3,0.3c0,0.1,0,0.3,0,0.4
	c0,0.1,0,0.2,0,0.2c0,0,0,0,0,0c-0.2,0.1-0.4,0.2-0.7,0.3c-0.2-0.2-0.3-0.4-0.5-0.6c-0.1-0.1-0.2-0.1-0.4,0
	c-0.2,0.2-0.5,0.4-0.7,0.7c0,0-0.1,0.1,0,0.2c0,0.1,0.1,0.1,0.1,0.2c0.1,0.1,0.2,0.2,0.4,0.4c0.1,0,0.1,0.1,0,0.2
	c-0.1,0.1-0.1,0.3-0.2,0.4c0,0.1,0,0.1-0.1,0.1c-0.2,0-0.5,0-0.7,0c-0.2,0-0.3,0.1-0.3,0.2c0,0.3,0,0.6,0,1c0,0.1,0.1,0.2,0.2,0.2
	c0.1,0,0.1,0,0.2,0c0.2,0,0.4,0,0.6,0c0.1,0.2,0.1,0.4,0.2,0.5c0,0.1,0,0.1,0,0.2c-0.2,0.2-0.3,0.3-0.4,0.5c-0.1,0.1-0.1,0.2,0,0.4
	c0.2,0.2,0.4,0.4,0.7,0.7c0.1,0.1,0.2,0.1,0.4,0c0.2-0.2,0.4-0.4,0.5-0.5c0.2,0.1,0.4,0.2,0.6,0.2c0.1,0,0.1,0.1,0.1,0.2
	c0,0.2,0,0.4,0,0.6c0,0.2,0.1,0.2,0.3,0.2c0.3,0,0.6,0,0.8,0c0.2,0,0.3-0.1,0.3-0.3c0-0.2,0-0.4,0-0.6c0-0.1,0-0.2,0.2-0.2
	c0.1,0,0.2-0.1,0.4-0.2c0.1,0,0.1-0.1,0.2-0.1c0.2,0.2,0.4,0.3,0.6,0.5c0.1,0.1,0.2,0.1,0.4,0c0.2-0.2,0.4-0.4,0.6-0.6
	c0.1-0.1,0.1-0.2,0-0.4c-0.1-0.2-0.3-0.3-0.4-0.5c0,0,0-0.1,0-0.2C25.9,16.4,26,16.2,26.1,16z M23.6,22.2
	C23.6,22.2,23.6,22.2,23.6,22.2c0.7,0,1.4,0,2.1,0c0.7,0,1.4,0,2.2,0c0.1,0,0.2,0,0.3-0.1c0.1-0.1,0.2-0.2,0.1-0.4
	c-0.1-0.2-0.2-0.3-0.4-0.3c-0.8,0-1.7,0-2.5,0c-2,0-4,0-6,0c-0.1,0-0.1,0-0.2,0c-0.2,0.1-0.3,0.3-0.2,0.5c0,0.2,0.2,0.3,0.4,0.3
	c0.4,0,0.9,0,1.3,0C21.7,22.2,22.7,22.2,23.6,22.2z M23.6,26.1C23.6,26.1,23.6,26.1,23.6,26.1c-0.3,0-0.6,0-0.9,0
	c-1.1,0-2.2,0-3.4,0c-0.2,0-0.4,0.2-0.4,0.5c0,0.2,0.2,0.3,0.4,0.3c0.4,0,0.8,0,1.3,0c1.5,0,3,0,4.5,0c0.9,0,1.9,0,2.8,0
	c0.2,0,0.4-0.2,0.4-0.4c0-0.2-0.2-0.4-0.4-0.4C26.5,26.1,25,26.1,23.6,26.1z M23.6,24.5C23.6,24.5,23.6,24.5,23.6,24.5
	c-1.4,0-2.8,0-4.2,0c-0.2,0-0.3,0.1-0.4,0.2c-0.1,0.1-0.1,0.3-0.1,0.4c0.1,0.2,0.2,0.3,0.4,0.3c0.3,0,0.6,0,1,0c1.9,0,3.9,0,5.8,0
	c0.6,0,1.1,0,1.7,0c0.2,0,0.4-0.1,0.4-0.4c0-0.2-0.2-0.4-0.4-0.4c-0.1,0-0.3,0-0.4,0C26.2,24.5,24.9,24.5,23.6,24.5z M23.6,23
	C23.6,23,23.6,23,23.6,23c-0.2,0-0.4,0-0.6,0c-1.2,0-2.4,0-3.6,0c-0.2,0-0.4,0.2-0.4,0.4c0,0.2,0.2,0.4,0.4,0.4c0.2,0,0.3,0,0.5,0
	c2.7,0,5.3,0,8,0c0.2,0,0.4-0.1,0.4-0.4c0-0.2-0.2-0.4-0.4-0.4c-0.5,0-1,0-1.5,0C25.4,23,24.5,23,23.6,23z M23.6,19.8
	C23.6,19.8,23.6,19.8,23.6,19.8c-0.3,0-0.6,0-0.8,0c-1.1,0-2.2,0-3.4,0c-0.1,0-0.2,0-0.3,0.1c-0.2,0.1-0.2,0.3-0.2,0.4
	c0,0.2,0.2,0.3,0.4,0.3c0.2,0,0.4,0,0.6,0c1.8,0,3.6,0,5.4,0c0.8,0,1.6,0,2.5,0c0.3,0,0.4-0.2,0.4-0.4c0-0.2-0.2-0.3-0.4-0.3
	C26.4,19.8,25,19.8,23.6,19.8z M26.8,29.2c0,0.4,0.3,0.7,0.6,0.7c0.4,0,0.7-0.3,0.7-0.6c0-0.4-0.3-0.7-0.7-0.7
	C27.1,28.5,26.8,28.8,26.8,29.2z M24.9,29.2c0,0.4,0.3,0.6,0.7,0.6c0.4,0,0.7-0.3,0.7-0.7c0-0.4-0.3-0.7-0.6-0.7
	C25.2,28.5,24.9,28.8,24.9,29.2z M19.6,28.9c-0.3,0-0.6,0.2-0.6,0.5c0,0.3,0.2,0.5,0.5,0.5c0.3,0,0.6-0.2,0.6-0.5
	C20.1,29.1,19.9,28.9,19.6,28.9z M20.9,29.4c0,0.3,0.2,0.5,0.5,0.5c0.3,0,0.5-0.2,0.5-0.5c0-0.3-0.2-0.5-0.5-0.5
	C21.1,28.9,20.9,29.1,20.9,29.4z M28.6,11.6c0,0.5-0.1,1,0,1.5c0.1,0.3,0.2,0.5,0.6,0.6c0.5,0,1,0,1.6,0.1
	C30,13,29.3,12.3,28.6,11.6z M23.3,14c0.7,0,1.3,0.6,1.3,1.3c0,0.8-0.6,1.3-1.3,1.4c-0.7,0-1.4-0.6-1.4-1.3
	C21.9,14.6,22.5,14,23.3,14z M23.3,14.6c-0.4,0-0.8,0.3-0.8,0.7c0,0.4,0.3,0.7,0.7,0.7c0.4,0,0.8-0.4,0.8-0.7
	C24.1,14.9,23.7,14.6,23.3,14.6z"/>
<path d="M33.1,23c0,2.2,0,4.3,0,6.5c0,0.5,0,1,0,1.6c0,1-0.4,1.7-1.2,2.3c-0.4,0.3-0.9,0.5-1.5,0.5c-1.7,0-3.3,0-5,0
	c-2.9,0-5.8,0-8.8,0c-1,0-2.5-0.9-2.6-2.3c0-0.2,0-0.4,0-0.6c0-2.9,0-5.8,0-8.7c0-3,0-5.9,0-8.9c0-0.3,0-0.6,0-1
	c0.1-0.9,0.6-1.6,1.4-2c0.4-0.3,0.9-0.3,1.4-0.3c2.1,0,4.2,0,6.3,0c1.4,0,2.9,0,4.3,0c0,0,0.1,0,0.1,0c0.4-0.1,0.8,0.1,1.1,0.4
	c0.9,0.8,1.7,1.6,2.5,2.4c0.5,0.5,1.1,1.1,1.6,1.6c0.1,0.1,0.1,0.2,0.1,0.4c0,2.7,0,5.3,0,8C33.1,22.8,33.1,22.9,33.1,23
	C33.1,23,33.1,23,33.1,23z M27.5,11.1c-0.1,0-0.2,0-0.4,0c-3.1,0-6.2,0-9.4,0c-0.4,0-0.7,0-1.1,0c-1,0.1-1.6,0.7-1.6,1.7
	c0,1.3,0,2.6,0,3.9c0,4.8,0,9.6,0,14.4c0,0.2,0,0.3,0.1,0.5c0.2,0.8,1,1.4,1.8,1.3c0.2,0,0.5,0,0.7,0c3.3,0,6.6,0,9.9,0
	c0.9,0,1.8,0,2.7,0.1c0.6,0,1.3-0.5,1.5-1c0.1-0.3,0.1-0.7,0.1-1.1c0-2.3,0-4.6,0-6.8c0-2.6,0-5.2,0-7.8c0-0.4,0-0.9,0-1.3
	c0,0,0,0-0.1,0c-0.9,0-1.7,0-2.6,0c-0.2,0-0.4,0-0.6-0.1c-0.6-0.2-1.2-0.7-1.2-1.6c0-0.3,0-0.6,0-0.9C27.5,11.8,27.5,11.4,27.5,11.1
	z M30.8,13.7c-0.7-0.7-1.5-1.4-2.2-2.1c0,0.5-0.1,1,0,1.5c0.1,0.3,0.2,0.5,0.6,0.6C29.7,13.7,30.2,13.7,30.8,13.7z M26.1,16
	c-0.1,0.2-0.2,0.4-0.3,0.6c0,0,0,0.1,0,0.2c0.1,0.2,0.3,0.3,0.4,0.5c0.1,0.2,0.1,0.2,0,0.4c-0.2,0.2-0.4,0.4-0.6,0.6
	c-0.1,0.1-0.2,0.1-0.4,0c-0.2-0.2-0.4-0.3-0.6-0.5c-0.1,0-0.1,0.1-0.2,0.1c-0.1,0.1-0.2,0.1-0.4,0.2C24,18,24,18,24,18.2
	c0,0.2,0,0.4,0,0.6c0,0.2-0.1,0.3-0.3,0.3c-0.3,0-0.6,0-0.8,0c-0.2,0-0.3-0.1-0.3-0.2c0-0.2,0-0.4,0-0.6c0-0.1,0-0.1-0.1-0.2
	c-0.2-0.1-0.4-0.1-0.6-0.2c-0.2,0.1-0.4,0.3-0.5,0.5c-0.1,0.1-0.2,0.1-0.4,0c-0.2-0.2-0.4-0.4-0.7-0.7c-0.1-0.1-0.1-0.2,0-0.4
	c0.1-0.2,0.3-0.3,0.4-0.5c0.1-0.1,0.1-0.1,0-0.2c-0.1-0.2-0.1-0.3-0.2-0.5c-0.2,0-0.4,0-0.6,0c-0.1,0-0.1,0-0.2,0
	c-0.1,0-0.2-0.1-0.2-0.2c0-0.3,0-0.6,0-1c0-0.1,0.1-0.2,0.3-0.2c0.2,0,0.5,0,0.7,0c0.1,0,0.1,0,0.1-0.1c0-0.1,0.1-0.3,0.2-0.4
	c0-0.1,0-0.1,0-0.2c-0.1-0.1-0.2-0.2-0.4-0.4c-0.1-0.1-0.1-0.1-0.1-0.2c0-0.1,0-0.2,0-0.2c0.2-0.2,0.5-0.5,0.7-0.7
	c0.1-0.1,0.2-0.1,0.4,0c0.2,0.2,0.4,0.4,0.5,0.6c0.3-0.1,0.5-0.2,0.7-0.3c0,0,0,0,0,0c0-0.1,0-0.2,0-0.2c0-0.1,0-0.3,0-0.4
	c0-0.2,0.1-0.3,0.3-0.3c0.3,0,0.6,0,0.8,0c0.2,0,0.3,0.1,0.3,0.3c0,0.2,0,0.4,0,0.7c0.3,0,0.5,0.1,0.7,0.3c0.2-0.2,0.4-0.4,0.7-0.6
	c0.2-0.1,0.2-0.1,0.4,0c0.2,0.2,0.4,0.4,0.6,0.6c0.2,0.2,0.2,0.2,0,0.4c-0.2,0.2-0.3,0.3-0.5,0.5c0.1,0.2,0.2,0.4,0.3,0.7
	c0.2,0,0.4,0,0.7,0c0.2,0,0.3,0.1,0.3,0.3c0,0.3,0,0.5,0,0.8c0,0.2,0,0.3-0.3,0.3C26.5,16,26.3,16,26.1,16z M23.3,14
	c-0.8,0-1.4,0.5-1.4,1.3c0,0.7,0.6,1.3,1.4,1.3c0.7,0,1.3-0.6,1.3-1.4C24.6,14.6,24,14,23.3,14z M23.6,22.2c-1,0-1.9,0-2.9,0
	c-0.4,0-0.9,0-1.3,0c-0.2,0-0.4-0.1-0.4-0.3c0-0.2,0.1-0.4,0.2-0.5c0.1,0,0.1,0,0.2,0c2,0,4,0,6,0c0.8,0,1.7,0,2.5,0
	c0.2,0,0.3,0.1,0.4,0.3c0.1,0.2,0,0.3-0.1,0.4c-0.1,0.1-0.2,0.1-0.3,0.1c-0.7,0-1.4,0-2.2,0C25,22.2,24.3,22.2,23.6,22.2
	C23.6,22.2,23.6,22.2,23.6,22.2z M23.6,26.1c-0.3,0-0.6,0-0.9,0c-1.1,0-2.2,0-3.4,0c-0.2,0-0.4,0.2-0.4,0.5c0,0.2,0.2,0.3,0.4,0.3
	c0.4,0,0.8,0,1.3,0c1.5,0,3,0,4.5,0c0.9,0,1.9,0,2.8,0c0.2,0,0.4-0.2,0.4-0.4c0-0.2-0.2-0.4-0.4-0.4C26.5,26.1,25,26.1,23.6,26.1
	C23.6,26.1,23.6,26.1,23.6,26.1z M23.6,24.5c-1.4,0-2.8,0-4.2,0c-0.2,0-0.3,0.1-0.4,0.2c-0.1,0.1-0.1,0.3-0.1,0.4
	c0.1,0.2,0.2,0.3,0.4,0.3c0.3,0,0.6,0,1,0c1.9,0,3.9,0,5.8,0c0.6,0,1.1,0,1.7,0c0.2,0,0.4-0.1,0.4-0.4c0-0.2-0.2-0.4-0.4-0.4
	c-0.1,0-0.3,0-0.4,0C26.2,24.5,24.9,24.5,23.6,24.5C23.6,24.5,23.6,24.5,23.6,24.5z M23.6,23c-0.2,0-0.4,0-0.6,0c-1.2,0-2.4,0-3.6,0
	c-0.2,0-0.4,0.2-0.4,0.4c0,0.2,0.2,0.4,0.4,0.4c0.2,0,0.3,0,0.5,0c2.7,0,5.3,0,8,0c0.2,0,0.4-0.1,0.4-0.4c0-0.2-0.2-0.4-0.4-0.4
	c-0.5,0-1,0-1.5,0C25.4,23,24.5,23,23.6,23C23.6,23,23.6,23,23.6,23z M23.6,19.8c-0.3,0-0.6,0-0.8,0c-1.1,0-2.2,0-3.4,0
	c-0.1,0-0.2,0-0.3,0.1c-0.2,0.1-0.2,0.3-0.2,0.4c0,0.2,0.2,0.3,0.4,0.3c0.2,0,0.4,0,0.6,0c1.8,0,3.6,0,5.4,0c0.8,0,1.6,0,2.5,0
	c0.3,0,0.4-0.2,0.4-0.4c0-0.2-0.2-0.3-0.4-0.3C26.4,19.8,25,19.8,23.6,19.8C23.6,19.8,23.6,19.8,23.6,19.8z M26.8,29.2
	c0-0.4,0.3-0.7,0.7-0.7c0.4,0,0.7,0.3,0.7,0.7c0,0.4-0.3,0.6-0.7,0.6C27.1,29.9,26.8,29.6,26.8,29.2z M25.5,29.9
	c0.4,0,0.7-0.3,0.7-0.7c0-0.4-0.3-0.7-0.6-0.7c-0.4,0-0.7,0.3-0.7,0.7C24.9,29.6,25.1,29.9,25.5,29.9z M19,29.3
	c0,0.3,0.2,0.5,0.5,0.5c0.3,0,0.6-0.2,0.6-0.5c0-0.3-0.2-0.5-0.5-0.5C19.3,28.9,19,29.1,19,29.3z M21.4,29.9c0.3,0,0.5-0.2,0.5-0.5
	c0-0.3-0.2-0.5-0.5-0.5c-0.3,0-0.5,0.2-0.5,0.5C20.9,29.7,21.1,29.9,21.4,29.9z M22.6,15.3c0,0.4,0.3,0.7,0.7,0.7
	c0.4,0,0.8-0.4,0.8-0.7c0-0.4-0.3-0.7-0.7-0.7C22.9,14.6,22.6,14.9,22.6,15.3z"/>
</svg>
