<?xml version="1.0" encoding="utf-8"?>
<!-- Generator: Adobe Illustrator 28.1.0, SVG Export Plug-In . SVG Version: 6.00 Build 0)  -->
<svg version="1.1" id="Layer_1" xmlns="http://www.w3.org/2000/svg" xmlns:xlink="http://www.w3.org/1999/xlink" x="0px" y="0px"
	 viewBox="0 0 48 48" style="enable-background:new 0 0 48 48;" xml:space="preserve">
<style type="text/css">
	.st0{fill:#858DFF;}
</style>
<path class="st0" d="M12,0h24c6.63,0,12,5.37,12,12v24c0,6.63-5.37,12-12,12H12C5.37,48,0,42.63,0,36V12C0,5.37,5.37,0,12,0z"/>
<path d="M36.32,18.07c-0.43-0.03-0.82-0.08-1.21-0.08c-0.39,0-0.49-0.15-0.48-0.53c0.02-0.97,0-1.94-0.01-2.91
	c0-0.25-0.03-0.5-0.06-0.84c-1.18,0-2.34,0-3.49,0c-0.85,0-1.71,0-2.56-0.03c-1.03-0.03-1.81-0.6-2.06-1.61
	c-0.16-0.65-0.23-1.33-0.24-2c-0.04-1.34-0.01-2.67-0.01-4.11c-0.33,0-0.63,0-0.93,0c-4.26,0.01-8.53,0-12.79,0.05
	c-0.83,0.01-1.69,0.09-2.47,0.34C8.21,6.95,7.2,8.45,7.21,10.35c0.02,9.01,0.05,18.02,0.07,27.03c0,1.22,0.31,2.34,1.15,3.24
	c0.8,0.86,1.8,1.38,2.99,1.38c6.2,0,12.41,0,18.61-0.01c1.12,0,2.18-0.2,3.14-0.84c0.59-0.39,1.03-0.87,1.28-1.52
	c0.06-0.15,0.14-0.29,0.21-0.44c0.48,0.19,0.95,0.35,1.39,0.55c0.09,0.04,0.17,0.32,0.12,0.39c-0.26,0.4-0.56,0.78-0.86,1.15
	c-1.4,1.74-3.25,2.47-5.46,2.45c-3.07-0.02-6.14,0-9.22-0.01c-3.06-0.01-6.12,0.02-9.17-0.05c-2.99-0.07-5.14-1.99-5.85-4.78
	c-0.11-0.43-0.09-0.9-0.09-1.36c0-6.38,0-12.76,0-19.14c0-2.78-0.02-5.56,0.02-8.33c0.03-2.51,2.29-5.21,4.75-5.69
	c0.71-0.14,1.46-0.14,2.2-0.14c4.82-0.01,9.64-0.01,14.46-0.01c0.83,0,1.43,0.49,2.01,0.98c0.36,0.3,0.66,0.66,1,0.99
	c1.71,1.63,3.39,3.3,5.14,4.89c0.86,0.78,1.29,1.63,1.22,2.81c-0.08,1.24-0.01,2.5,0,3.75C36.33,17.81,36.32,17.96,36.32,18.07z
	 M28.18,7.02c0,1.36-0.03,2.72,0.01,4.08c0.02,0.74,0.14,0.8,0.89,0.82c0.88,0.02,1.76,0.04,2.64,0.06c0.53,0.01,1.07,0,1.67,0
	C31.62,10.29,29.9,8.65,28.18,7.02z M35.75,32.44c-0.8,0.87-1.57,1.78-2.37,2.66c-0.71,0.78-0.31,2.21,0.65,2.54
	c1.66,0.58,3.32,1.16,5.01,1.67c0.83,0.25,1.24-0.22,1.01-1.07c-0.14-0.55-0.29-1.11-0.48-1.65c-0.11-0.34-0.07-0.59,0.19-0.83
	c0.76-0.72,1.31-1.58,1.76-2.51c0.53-1.09,0.87-2.23,0.93-3.48c-1.16,0-2.28,0-3.41,0c-0.01,1.01-0.15,1.95-0.92,2.69
	c0.01-0.7,0.07-1.4-0.57-1.87C36.94,31.22,36.33,31.81,35.75,32.44z M26.83,29.16c0.12-1.14,0.26-2.25,0.82-3.27
	c0.79-1.42,1.77-2.62,3.33-3.24c0.29-0.12,0.34-0.26,0.21-0.53c-0.31-0.66-0.61-1.33-0.88-2.01c-0.14-0.35-0.36-0.41-0.65-0.24
	c-0.91,0.53-1.87,1-2.69,1.65c-1.44,1.15-2.43,2.66-3.01,4.41c-0.34,1.03-0.53,2.1-0.55,3.23C24.57,29.16,25.69,29.16,26.83,29.16z
	 M20.61,15.33c-1.32,0-2.64,0-3.97,0c-1.51-0.01-3.03-0.03-4.54-0.03c-0.73,0-1.12,0.63-0.84,1.31c0.17,0.41,0.51,0.49,0.9,0.49
	c2.34,0.01,4.67,0.03,7.01,0.03c3.31-0.01,6.61-0.03,9.92-0.04c0.3,0,0.43-0.08,0.43-0.39c0-0.35,0.03-0.7,0.05-1.06
	c0.02-0.3-0.1-0.4-0.41-0.4c-2.85,0.01-5.7,0.01-8.55,0.01C20.61,15.28,20.61,15.3,20.61,15.33z M26.38,36.21
	c0.81,0.81,1.73,1.45,2.81,1.83c0.33,0.12,0.6,0.12,0.76-0.25c0.3-0.71,0.59-1.42,0.89-2.13c0.15-0.36,0.03-0.56-0.32-0.71
	c-1.15-0.48-1.98-1.33-2.63-2.38c-0.54-0.87-0.81-1.84-0.95-2.79c-1.21,0-2.38,0-3.55,0C23.52,32.06,24.67,34.49,26.38,36.21z
	 M36.16,24.76c0.63,0,1.26,0,1.89,0c0.71,0.01,0.81-0.09,0.81-0.81c0-1.31,0.01-2.61,0.02-3.92c0-0.41-0.19-0.63-0.59-0.54
	c-0.53,0.11-1.03,0.33-1.56,0.44c-0.4,0.09-0.83,0.17-1.23,0.11c-0.56-0.07-1.11-0.28-1.66-0.41c-0.66-0.16-0.97,0.06-0.97,0.72
	c0,0.65,0.02,1.29,0.05,1.94c0.03,0.7-0.04,1.33-0.7,1.78c-0.15,0.1-0.29,0.53-0.21,0.63c0.15,0.18,0.46,0.34,0.7,0.33
	c1.15-0.08,2.3-0.22,3.45-0.33C36.15,24.71,36.15,24.73,36.16,24.76z M26.27,19.46c-0.47,0.01-0.94,0.05-1.41,0.05
	c-4.29-0.03-8.58-0.05-12.87-0.1c-0.49-0.01-0.72,0.21-0.81,0.62c-0.06,0.26-0.04,0.55,0,0.82c0.05,0.35,0.27,0.53,0.64,0.53
	c0.4-0.01,0.79,0,1.19,0.01c3.55,0.05,7.11,0.1,10.66,0.16c0.44,0.01,0.78-0.14,1.12-0.41c0.62-0.49,1.26-0.95,1.89-1.43
	c0.04-0.03,0.07-0.09,0.14-0.19C26.61,19.48,26.44,19.45,26.27,19.46z M22.15,24.37c-3.41-0.07-6.82-0.13-10.23-0.17
	c-0.16,0-0.4,0.11-0.46,0.24c-0.15,0.34-0.27,0.71-0.3,1.07c-0.03,0.4,0.23,0.6,0.64,0.61c3.28,0.08,6.55,0.16,9.83,0.24
	c0.11,0,0.28-0.09,0.32-0.19c0.23-0.54,0.43-1.09,0.67-1.7C22.49,24.43,22.32,24.37,22.15,24.37z M38.97,29.17c1.17,0,2.32,0,3.52,0
	c-0.23-2.19-0.72-4.18-2.7-5.58c0.19,1.32-0.63,2.18-2.08,2.26C38.46,26.84,38.74,27.99,38.97,29.17z M35.92,26.22
	c-0.84-0.04-1.09,0.13-1.13,0.96c-0.05,1.13-0.01,2.25,0,3.38c0,0.11,0.05,0.22,0.09,0.41c0.5-0.37,0.96-0.7,1.4-1.04
	c0.05-0.04,0.04-0.17,0.04-0.25c0.06-1.11,0.12-2.22,0.18-3.39C36.29,26.27,36.1,26.23,35.92,26.22z"/>
</svg>
