<?xml version="1.0" encoding="utf-8"?>
<!-- Generator: Adobe Illustrator 28.1.0, SVG Export Plug-In . SVG Version: 6.00 Build 0)  -->
<svg version="1.1" id="Layer_1" xmlns="http://www.w3.org/2000/svg" xmlns:xlink="http://www.w3.org/1999/xlink" x="0px" y="0px"
	 viewBox="0 0 48 48" style="enable-background:new 0 0 48 48;" xml:space="preserve">
<style type="text/css">
	.st0{fill:#FF98E2;}
</style>
<path class="st0" d="M12,0h24c6.63,0,12,5.37,12,12v24c0,6.63-5.37,12-12,12H12C5.37,48,0,42.63,0,36V12C0,5.37,5.37,0,12,0z"/>
<path d="M19.17,3.36c-0.09,0.4-0.21,0.77-0.24,1.14c-0.02,0.31-0.16,0.47-0.43,0.57c-0.55,0.22-1.1,0.44-1.63,0.69
	c-3.24,1.49-5.74,3.78-7.5,6.89c-0.87,1.55-1.54,3.17-1.88,4.91c-0.87,4.57-0.01,8.8,2.65,12.61c2.59,3.7,6.19,5.86,10.63,6.63
	c0.25,0.04,0.51,0.19,0.71,0.36c0.23,0.19,0.37,0.47,0.19,0.77c-0.18,0.31-0.4,0.59-0.81,0.51c-0.55-0.1-1.11-0.19-1.66-0.34
	c-4-1.08-7.36-3.16-9.93-6.44c-1.49-1.9-2.46-4.06-3.1-6.38c-0.83-2.99-0.79-5.97-0.05-8.97c1.04-4.22,3.33-7.6,6.83-10.14
	c1.68-1.23,3.51-2.22,5.57-2.7C18.76,3.43,18.97,3.4,19.17,3.36z M29.44,4.81c0.09,0.25,0.19,0.37,0.44,0.46
	c2.34,0.87,4.44,2.14,6.16,3.95c1.98,2.09,3.48,4.48,4.25,7.3c0.58,2.14,0.71,4.28,0.39,6.45c-0.43,2.93-1.66,5.53-3.42,7.89
	c-1.89,2.53-4.34,4.27-7.32,5.26c-0.96,0.32-1.96,0.52-2.95,0.76c-0.39,0.1-0.62,0.38-0.63,0.72c-0.01,0.24,0.18,0.6,0.39,0.69
	c0.27,0.13,0.65,0.11,0.96,0.04c4.87-0.99,8.83-3.41,11.66-7.56c2.59-3.78,3.44-7.99,2.9-12.46c-0.44-3.6-2-6.76-4.36-9.5
	c-1.62-1.88-3.62-3.28-5.84-4.38c-1.04-0.52-2.12-0.99-3.27-1.12C29.01,3.81,29.27,4.3,29.44,4.81z M23.83,33.26
	c1.14,0,2.28,0,3.43,0c1.46,0,2.92,0,4.38-0.01c0.52,0,0.82-0.26,0.85-0.7c0.02-0.44-0.36-0.81-0.89-0.83
	c-0.38-0.02-0.77-0.01-1.15-0.01c-4.73-0.01-9.47-0.01-14.2-0.02c-0.18,0-0.36,0.01-0.53,0.06c-0.58,0.16-0.75,0.72-0.39,1.2
	c0.22,0.29,0.52,0.33,0.84,0.33C18.71,33.27,21.27,33.27,23.83,33.26C23.83,33.27,23.83,33.27,23.83,33.26z M20.34,8.99
	c-0.17,0.39,0.04,0.63,0.37,0.8c1.15,0.58,2.3,1.17,3.47,1.73c0.92,0.44,0.89,0.4,1.24-0.57c0.27-0.75,0.58-1.49,0.97-2.18
	c0.29-0.51,0.35-0.6-0.17-0.88c-1.12-0.61-2.26-1.2-3.39-1.79c-0.29-0.15-0.6-0.24-0.98-0.39C21.33,6.83,20.82,7.91,20.34,8.99z
	 M30.34,29.43c-0.57-0.58-1.27-0.78-2.06-0.77c-1.09,0.01-2.17,0.02-3.26,0.02c-2.04,0.01-4.07-0.01-6.11,0.03
	c-0.46,0.01-0.94,0.19-1.37,0.39c-0.48,0.22-0.76,0.63-0.76,1.18c0,0.1,0.08,0.3,0.13,0.3c0.53,0.01,1.08,0.25,1.57-0.21
	c0.19-0.18,0.5-0.27,0.77-0.31c0.28-0.05,0.58,0,0.86,0.02c1.66,0.11,3.31,0.27,4.99,0.12c1.14-0.1,2.28-0.07,3.42-0.07
	c0.22,0,0.52,0.09,0.66,0.25c0.26,0.29,0.54,0.34,0.88,0.3c0.22-0.03,0.43-0.06,0.64-0.08C30.81,30.13,30.7,29.8,30.34,29.43z
	 M39.66,17.23c-0.24-1.36-0.7-2.5-2.18-3.05c-1.78-0.67-3.49-1.55-5.23-2.32c-0.15-0.06-0.45-0.1-0.48-0.05
	c-0.23,0.42-0.4,0.87-0.63,1.38c0.86-0.18,1.56-0.07,2.22,0.24c0.96,0.44,1.39,1.15,1.26,2.04c-0.01,0.09-0.03,0.18-0.06,0.33
	c1.71,0.78,3.42,1.55,5.22,2.37C39.73,17.76,39.71,17.49,39.66,17.23z M22.14,3.9c-0.1,0.37,0.06,0.64,0.59,0.98
	c0.03,0.02,0.07,0.05,0.11,0.07c1.56,0.82,3.11,1.64,4.67,2.44c0.38,0.2,0.8,0.12,1.03-0.14c0.24-0.28,0.28-0.79-0.01-1.11
	c-0.23-0.26-0.52-0.48-0.83-0.66c-1.16-0.66-2.33-1.29-3.51-1.92c-0.3-0.16-0.62-0.26-0.94-0.39C22.72,3.23,22.25,3.52,22.14,3.9z
	 M25.09,13.78c0.09-0.41-0.12-0.69-0.66-0.95c-1.59-0.77-3.17-1.57-4.77-2.33c-0.16-0.08-0.44-0.07-0.6,0.02
	c-0.67,0.37-0.75,1.09-0.17,1.6c0.19,0.17,0.43,0.3,0.66,0.41c1.19,0.56,2.39,1.12,3.59,1.66c0.28,0.13,0.59,0.22,0.76,0.28
	C24.56,14.47,25,14.18,25.09,13.78z M25.8,42.96c-0.04-1.13-0.86-1.86-1.94-1.92c-0.88-0.05-1.81,1.04-1.8,1.99
	c0.02,0.97,0.87,1.82,1.83,1.81C24.96,44.82,25.84,43.98,25.8,42.96z M24.61,27.69c-0.03-2.12-0.05-4.24-0.09-6.35
	c0-0.12-0.1-0.33-0.17-0.34c-0.36-0.03-0.75-0.07-1.09,0.02c-0.11,0.03-0.18,0.43-0.18,0.66c0,1.64,0.01,3.27,0.04,4.91
	c0.02,1.26,0.04,1.26,1.31,1.23c0.04,0,0.08-0.01,0.14-0.02C24.59,27.73,24.61,27.71,24.61,27.69z M24.63,37.99
	c0-0.81,0.03-1.62-0.02-2.43c-0.02-0.24-0.23-0.57-0.44-0.66c-0.18-0.08-0.53,0.04-0.72,0.19c-0.15,0.12-0.22,0.4-0.23,0.62
	c-0.03,1.26-0.03,2.53-0.02,3.79c0,0.31,0.05,0.63,0.13,0.93c0.09,0.35,0.47,0.53,0.97,0.4c0.14-0.04,0.29-0.34,0.3-0.53
	c0.03-0.77,0.01-1.54,0.01-2.31C24.62,37.99,24.63,37.99,24.63,37.99z M29.88,12.59c0.14-0.25,0.23-0.53,0.32-0.8
	c0.16-0.49,0.04-0.77-0.43-1.02c-0.74-0.39-1.49-0.77-2.22-1.16c-0.22-0.11-0.36-0.08-0.48,0.13c-0.16,0.29-0.34,0.57-0.48,0.86
	c-0.23,0.51-0.17,0.74,0.3,1.04c0.63,0.41,1.28,0.8,1.93,1.19c0.16,0.1,0.36,0.13,0.62,0.22C29.58,12.91,29.78,12.77,29.88,12.59z
	 M21.27,17.34c-0.01,0.04-0.03,0.07-0.09,0.19c-0.42-0.23-0.84-0.41-1.21-0.67c-0.85-0.59-1.8-0.88-2.81-0.97
	c-0.2-0.02-0.49,0.02-0.58,0.14c-0.17,0.23-0.22,0.51-0.03,0.83c0.57,0.96,1.1,1.94,1.62,2.92c0.42,0.79,0.79,1.6,1.21,2.39
	c0.27,0.52,0.25,1.02,0.08,1.55c-0.87,2.68-3.93,3.79-6.48,2.35c-1.05-0.6-1.72-1.46-1.84-2.67c-0.04-0.39-0.02-0.85,0.14-1.2
	c0.61-1.41,1.29-2.79,1.95-4.18c0.22-0.47,0.48-0.93,0.68-1.41c0.07-0.17,0.11-0.41,0.05-0.58c-0.19-0.57-0.01-1.04,0.38-1.43
	c0.39-0.39,0.9-0.52,1.41-0.29c0.46,0.21,0.91,0.22,1.39,0.21c1.51-0.03,2.82,0.55,4.01,1.42c0.14,0.1,0.21,0.37,0.22,0.56
	C21.37,16.79,21.3,17.07,21.27,17.34z M15.67,17.5c-0.07-0.13-0.19-0.23-0.29-0.34c-0.13,0.11-0.3,0.2-0.37,0.34
	c-0.68,1.33-1.35,2.67-2.01,4.01c-0.19,0.39-0.37,0.78-0.6,1.26c1.96,0,3.85,0,5.86,0c-0.18-0.38-0.31-0.69-0.46-0.99
	C17.09,20.35,16.38,18.92,15.67,17.5z M35.92,24.56c-1.4,2.27-4.29,2.86-6.47,1.3c-1.2-0.86-2.12-2.68-1.11-4.48
	c0.88-1.57,1.62-3.21,2.42-4.82c0.23-0.47,0.06-0.73-0.46-0.72c-1.08,0.03-2.02,0.45-2.92,1.02c-0.26,0.17-0.55,0.29-0.82,0.43
	c-0.07-0.07-0.09-0.07-0.09-0.09c-0.52-1.03-0.52-1.04,0.46-1.62c1.19-0.71,2.46-1.14,3.86-1.14c0.19,0,0.38-0.06,0.55-0.13
	c0.66-0.27,1.23-0.07,1.69,0.41c0.44,0.45,0.43,0.99,0.16,1.53c-0.12,0.23-0.04,0.38,0.08,0.59c0.77,1.38,1.5,2.78,2.25,4.17
	c0.16,0.3,0.3,0.62,0.48,0.91C36.54,22.81,36.45,23.7,35.92,24.56z M35.04,22.78c-0.18-0.36-0.31-0.64-0.45-0.92
	c-0.8-1.59-1.86-3.05-2.22-4.85c-0.27-0.06-0.44,0.05-0.57,0.32c-0.77,1.58-1.55,3.16-2.33,4.74c-0.11,0.21-0.18,0.45-0.28,0.71
	C31.17,22.78,33.05,22.78,35.04,22.78z M25.07,19.38c-0.42,0.2-0.9,0.29-1.35,0.43c-0.44-0.12-0.86-0.17-1.22-0.35
	c-0.49-0.25-0.79-0.69-0.8-1.26c-0.03-1.23,0.44-2.27,1.54-2.5c0.65-0.14,1.23,0,1.7,0.48c0.41,0.41,0.77,0.85,0.91,1.44
	C26.03,18.37,25.76,19.06,25.07,19.38z M24.51,17.76c0.02-0.36-0.38-0.69-0.82-0.69c-0.33,0-0.74,0.39-0.73,0.71
	c0,0.34,0.45,0.68,0.9,0.68C24.21,18.46,24.5,18.16,24.51,17.76z"/>
</svg>
