<?xml version="1.0" encoding="utf-8"?>
<!-- Generator: Adobe Illustrator 28.1.0, SVG Export Plug-In . SVG Version: 6.00 Build 0)  -->
<svg version="1.1" id="Layer_1" xmlns="http://www.w3.org/2000/svg" xmlns:xlink="http://www.w3.org/1999/xlink" x="0px" y="0px"
	 viewBox="0 0 48 48" style="enable-background:new 0 0 48 48;" xml:space="preserve">
<style type="text/css">
	.st0{fill:#FFC876;}
</style>
<path class="st0" d="M12,0h24c6.63,0,12,5.37,12,12v24c0,6.63-5.37,12-12,12H12C5.37,48,0,42.63,0,36V12C0,5.37,5.37,0,12,0z"/>
<g>
	<path d="M27.67,21.54c0.56,0,1.11,0,1.67,0c0.08,0.21,0.02,0.43-0.19,0.61c-0.28,0.26-0.56,0.52-0.85,0.79
		C28.11,22.51,27.89,22.03,27.67,21.54z M21.1,9.62c-2.89-0.01-5.77-0.02-8.66-0.01c-1.23,0-2.13,0.57-2.66,1.7
		c-0.22,0.46-0.24,0.95-0.24,1.44c0,3.86-0.01,7.73-0.01,11.59c0,3.61,0,7.23-0.01,10.84c0,0.5,0.05,0.99,0.3,1.43
		c0.61,1.08,1.55,1.65,2.77,1.68c1.87,0.04,3.74,0.04,5.61,0.04c2.63,0,5.26-0.02,7.88-0.02c1.47,0,2.54-0.65,3.21-1.93
		c0.26-0.49,0.28-1.14-0.24-1.56c-0.43-0.34-0.81-0.73-1.2-1.12c-0.47-0.48-0.94-0.96-1.38-1.47c-0.15-0.17-0.24-0.42-0.28-0.65
		c-0.04-0.23,0.02-0.48,0.04-0.71c-0.29-0.23-0.58-0.46-0.87-0.69c-0.25,0.12-0.52,0.25-0.82,0.39c0.16,0.02,0.3,0.03,0.43,0.05
		c0.21,0.04,0.46,0.31,0.45,0.48c0,0.16-0.22,0.33-0.47,0.35c-0.22,0.02-0.44,0.04-0.66,0.03c-1.54-0.02-3.08-0.06-4.62-0.06
		c-2.11-0.01-4.22,0-6.33,0.01c-0.09,0-0.19,0.01-0.25-0.04c-0.11-0.09-0.26-0.21-0.28-0.33c-0.02-0.12,0.08-0.32,0.18-0.38
		c0.17-0.11,0.39-0.2,0.58-0.2c1.69,0.01,3.38,0.04,5.07,0.06c0.45,0.01,0.91,0,1.36,0c0-0.03,0.01-0.05,0.01-0.08
		c-0.61-0.25-1.14-0.61-1.61-1.07c-0.07-0.07-0.21-0.1-0.32-0.1c-1.28-0.01-2.56-0.01-3.85,0c-0.32,0-0.64,0.05-0.96,0.05
		c-0.24,0-0.4-0.16-0.45-0.4c-0.04-0.2,0.06-0.4,0.28-0.48c0.17-0.06,0.35-0.09,0.52-0.1c0.99-0.01,1.97,0,2.96,0
		c0.28,0,0.55,0,0.83,0c-0.19-0.35-0.37-0.65-0.53-0.97c-0.08-0.16-0.16-0.22-0.34-0.22c-0.77,0.01-1.53,0.01-2.3,0.01
		c-0.34,0-0.67,0.01-1.01,0.01c-0.23,0-0.4-0.1-0.44-0.34c-0.05-0.26,0.06-0.48,0.31-0.56c0.19-0.06,0.4-0.09,0.6-0.08
		c0.77,0.02,1.55,0.05,2.32,0.08c0.15,0,0.29,0,0.4,0c-0.06-0.46-0.13-0.9-0.19-1.36c-0.06-0.01-0.13-0.02-0.21-0.02
		c-0.78,0.01-1.56,0.03-2.35,0.04c-0.19,0-0.38,0.01-0.56-0.02c-0.29-0.04-0.41-0.24-0.34-0.53c0.06-0.24,0.27-0.39,0.59-0.4
		c0.56-0.02,1.13-0.02,1.69-0.02c0.43,0,0.86,0.04,1.26,0.05c0.12-0.45,0.24-0.87,0.37-1.33c-0.13,0-0.25,0-0.37,0
		c-0.97,0.04-1.94,0.07-2.91,0.11c-0.12,0-0.23-0.01-0.35-0.04c-0.22-0.05-0.34-0.23-0.3-0.46c0.05-0.29,0.28-0.47,0.68-0.47
		c1.08,0,2.16-0.01,3.24,0.03c0.28,0.01,0.42-0.06,0.57-0.29c0.22-0.35,0.51-0.66,0.78-1c-0.13-0.01-0.25-0.04-0.36-0.04
		c-1.18,0.02-2.36,0.03-3.54,0.06c-0.33,0.01-0.66,0.05-0.98,0.05c-0.36-0.01-0.5-0.29-0.34-0.61c0.14-0.28,0.38-0.37,0.68-0.37
		c1.7-0.01,3.39-0.03,5.09-0.04c0.08,0,0.15,0.04,0.23,0.04c0.15,0,0.31,0.01,0.44-0.04c0.24-0.09,0.45-0.25,0.69-0.34
		c1.75-0.67,3.48-0.56,5.2,0.11c-0.03-0.18-0.07-0.38-0.1-0.58c-0.04-0.34-0.03-0.35-0.37-0.35c-1.3,0.01-2.6,0.03-3.89,0.04
		c-2.49,0.02-4.99,0.04-7.48,0.06c-0.08,0-0.16,0-0.23-0.01c-0.2-0.03-0.31-0.18-0.29-0.38c0.03-0.35,0.28-0.59,0.64-0.6
		c0.23-0.01,0.47,0,0.7,0c3.11-0.02,6.23-0.04,9.34-0.05c0.56,0,1.13,0.05,1.68,0.12c0.35,0.04,0.39,0.06,0.53-0.25
		c0.38-0.84,0.77-1.67,1.15-2.51c0.06-0.13,0.1-0.27,0.16-0.46c-0.38-0.03-0.7-0.07-1.02-0.08c-0.73-0.02-1.45-0.03-2.18-0.05
		c-0.45-0.01-0.72-0.29-0.86-0.68c-0.07-0.2-0.09-0.43-0.09-0.64c0.01-0.84,0.04-1.67,0.06-2.51c0.01-0.26,0-0.53,0-0.83
		C22.27,9.62,21.68,9.62,21.1,9.62z M21.32,16.2c-0.82-0.06-1.65-0.06-2.48-0.06c-1.54,0-3.08,0.01-4.62,0.02
		c-0.34,0-0.67,0.02-1.01,0.04c-0.16,0.01-0.21-0.06-0.22-0.22c-0.01-0.16-0.05-0.32-0.1-0.47c-0.09-0.24-0.04-0.38,0.2-0.45
		c0.14-0.04,0.29-0.06,0.44-0.04c1.95,0.21,3.91,0.13,5.86,0.13c0.74,0,1.49-0.02,2.23,0.02c0.54,0.03,1.07,0.15,1.6,0.18
		c0.52,0.03,1.05-0.01,1.57-0.02c0.32,0,0.56,0.2,0.59,0.49c0.03,0.34-0.1,0.53-0.44,0.57c-0.38,0.04-0.76,0.04-1.15,0.06
		c0,0.02-0.01,0.03-0.01,0.05C22.96,16.4,22.14,16.26,21.32,16.2z M24.78,32.63c0.34,0.01,0.61,0.19,0.72,0.47
		c0.1,0.27-0.01,0.45-0.3,0.47c-0.09,0.01-0.17,0.01-0.26,0c-1.49-0.02-2.97-0.04-4.46-0.04c-2.1-0.01-4.19-0.01-6.29,0
		c-0.26,0-0.51,0.05-0.77,0.06c-0.34,0.01-0.56-0.17-0.58-0.42c-0.02-0.27,0.22-0.56,0.51-0.62c0.08-0.02,0.17-0.02,0.26-0.02
		c1.86,0,3.72,0,5.21,0C21.06,32.55,22.92,32.59,24.78,32.63z M31.25,13.9c0.27,0,0.48,0.23,0.47,0.49c0,0.63-0.01,1.27-0.01,1.9
		c0.01,1.89,0.02,3.78,0.03,5.72c-0.27,0-0.58,0-0.88,0c-0.47,0.01-0.81,0.26-1.07,0.63c-0.13,0.19-0.19,0.4-0.16,0.63
		c1.62,0,3.22,0,4.82,0c0.08-0.57-0.01-0.86-0.41-1.03c-0.22-0.1-0.46-0.14-0.7-0.16c-0.31-0.03-0.62-0.01-0.88-0.01
		c0.03-0.4,0.08-0.74,0.08-1.08c0.01-2.2,0-4.4,0-6.59c0-0.23,0.29-0.55,0.51-0.55c0.65,0,1.3,0,1.95,0.02
		c0.07,0,0.16,0.06,0.2,0.11c0.09,0.12,0.16,0.25,0.22,0.36c-0.1,0.2-0.2,0.38-0.29,0.57c-0.52,1.16-1.05,2.32-1.55,3.49
		c-0.09,0.2-0.11,0.47-0.04,0.68c0.15,0.52,0.45,0.97,0.9,1.28c1.36,0.96,3.31,0.62,4-1.41c0.05-0.14,0.03-0.33-0.03-0.47
		c-0.16-0.37-0.37-0.72-0.55-1.08c-0.48-1.01-0.94-2.03-1.41-3.05c0.04-0.04,0.07-0.08,0.11-0.12c0.29-0.25,0.41-0.55,0.29-0.92
		c-0.11-0.35-0.33-0.61-0.71-0.66c-0.38-0.06-0.67,0.08-0.86,0.43c-0.03,0.05-0.12,0.1-0.17,0.1c-0.26-0.01-0.51-0.06-0.76-0.07
		c-0.54-0.02-1.07-0.03-1.61-0.04c-0.02,0-0.05,0.02-0.07,0.04c-0.34,0.3-0.68,0.27-0.99-0.08c-0.04-0.04-0.17-0.07-0.18-0.05
		c-0.17,0.21-0.41,0.16-0.63,0.16c-0.55,0.02-1.11,0.01-1.66,0.05c-0.15,0.01-0.25,0-0.35-0.13c-0.36-0.44-0.85-0.47-1.21-0.09
		c-0.39,0.41-0.41,0.8-0.09,1.27c0.06,0.09,0.12,0.24,0.08,0.32c-0.59,1.27-1.19,2.53-1.78,3.8c-0.07,0.15-0.11,0.37-0.06,0.52
		c0.15,0.45,0.31,0.91,0.67,1.24c1.39,1.29,3.61,0.79,4.27-1.13c0.08-0.24,0.07-0.47-0.13-0.67c-0.09-0.09-0.17-0.21-0.23-0.33
		c-0.53-1.12-1.07-2.24-1.59-3.37c-0.03-0.07-0.02-0.2,0.02-0.28c0.08-0.15,0.2-0.29,0.3-0.43C29.83,13.89,30.54,13.89,31.25,13.9z
		 M37.56,18.47c-1.05,0-2.05,0-3.08,0c0.34-1.19,0.94-2.26,1.44-3.42C36.47,16.21,37.01,17.32,37.56,18.47z M26.68,18.45
		c0.4-1.18,0.99-2.24,1.51-3.36c0.54,1.13,1.06,2.23,1.61,3.36C28.73,18.45,27.73,18.45,26.68,18.45z M26.92,28
		c-0.1-0.1-0.1-0.17-0.03-0.28c0.85-1.35,1.03-2.8,0.61-4.32c-0.66-2.42-2.75-3.73-5-3.76c-2.2-0.03-3.83,1.02-4.81,2.97
		c-0.96,1.92-0.68,4.52,1.27,6.22c1.54,1.34,3.27,1.66,5.18,1.03c0.52-0.17,0.99-0.48,1.55-0.76c0.42,0.44,0.88,0.93,1.33,1.4
		c0.38-0.41,0.75-0.82,1.15-1.26C27.74,28.8,27.33,28.4,26.92,28z M22.45,28.98c-2.61,0-4.08-2.16-4.07-4.12
		c0.01-2.36,1.92-4.14,4.05-4.11c2.33,0.03,4.06,1.79,4.05,4.15C26.47,27.31,24.68,28.98,22.45,28.98z M36.03,35.54
		c-0.24-0.19-0.46-0.4-0.68-0.61c-0.83-0.77-1.66-1.54-2.49-2.32c-1.04-0.98-2.07-1.97-3.11-2.95c-0.38-0.36-0.49-0.36-0.85,0.01
		c-0.56,0.57-1.1,1.15-1.66,1.72c-0.15,0.15-0.13,0.28-0.01,0.42c0.05,0.05,0.09,0.11,0.14,0.16c1.42,1.43,2.84,2.87,4.26,4.3
		c0.58,0.58,1.14,1.19,1.73,1.76c0.17,0.16,0.4,0.3,0.62,0.35c1.44,0.27,2.33-0.66,2.44-1.93C36.43,36.07,36.32,35.77,36.03,35.54z
		 M33.75,37.63c-0.33-0.16-0.31-0.26-0.04-0.51c0.41-0.37,0.76-0.8,1.14-1.2c0.08-0.09,0.17-0.2,0.27-0.24
		c0.08-0.04,0.24-0.03,0.29,0.03c0.08,0.08,0.15,0.23,0.13,0.33c-0.03,0.18-0.1,0.37-0.22,0.51c-0.31,0.36-0.65,0.69-0.99,1.03
		c-0.08,0.08-0.2,0.1-0.3,0.14C33.92,37.69,33.83,37.67,33.75,37.63z M31.01,25.71c0,1.34,0,2.64,0,4.01
		c-0.14-0.13-0.22-0.21-0.3-0.28c-0.36-0.33-0.7-0.7-1.2-0.82c-0.12-0.03-0.26,0-0.39-0.02c-0.13-0.02-0.28-0.03-0.37-0.11
		c-0.27-0.24-0.52-0.5-0.76-0.76c-0.04-0.04-0.07-0.15-0.04-0.19c0.36-0.54,0.46-1.15,0.55-1.77c0-0.03,0.02-0.06,0.02-0.06
		C29.36,25.71,30.2,25.71,31.01,25.71z M23.8,9.58c0.18,0.13,0.37,0.23,0.52,0.39c0.55,0.56,1.08,1.13,1.62,1.69
		c0.26,0.27,0.53,0.53,0.81,0.78c0.12,0.12,0.16,0.23,0.12,0.41c-0.15,0.64-0.15,0.65-0.8,0.63c-0.68-0.01-1.36-0.04-2.04-0.04
		c-0.23,0-0.32-0.09-0.32-0.32c0.01-1.15,0-2.31,0-3.46C23.75,9.63,23.77,9.6,23.8,9.58z M22.38,23.07c-0.37,0-0.75,0-1.12,0
		c-0.17,0-0.35-0.02-0.41-0.2c-0.07-0.2-0.04-0.41,0.12-0.56c0.05-0.05,0.16-0.06,0.24-0.06c0.81,0,1.62,0.01,2.43,0.01
		c0.25,0,0.35,0.08,0.37,0.34c0.02,0.27-0.08,0.42-0.33,0.44c-0.15,0.01-0.31,0-0.47,0c-0.27,0-0.55,0-0.82,0
		C22.38,23.06,22.38,23.07,22.38,23.07z M32.17,23.93c1.03,0,2.06-0.01,3.09,0c0.46,0,0.59,0.13,0.58,0.51
		c-0.01,0.34-0.23,0.53-0.63,0.53c-1.02-0.01-2.03-0.02-3.05-0.03c-0.98,0-1.97,0.01-2.95,0.01c-0.05,0-0.09,0-0.14,0
		c-0.54-0.02-0.72-0.29-0.54-0.81c0.02-0.07,0.11-0.14,0.18-0.16c0.11-0.04,0.23-0.05,0.35-0.05c1.04,0,2.08,0,3.12,0
		C32.17,23.94,32.17,23.93,32.17,23.93z M32.14,12.79c-0.09,0-0.19-0.01-0.28-0.01c-0.33-0.01-0.57-0.37-0.42-0.67
		c0.14-0.28,0.35-0.5,0.69-0.53c0.32-0.02,0.57,0.14,0.7,0.42c0.07,0.14,0.1,0.36,0.04,0.5c-0.07,0.18-0.23,0.35-0.49,0.3
		C32.3,12.79,32.22,12.8,32.14,12.79C32.14,12.8,32.14,12.8,32.14,12.79z M20.9,25.49c0.04,0.03,0.04,0.03,0.05,0.04
		c0.22,0.36,0.21,0.33,0.66,0.28c0.49-0.05,1-0.05,1.49-0.04c0.19,0,0.39,0.09,0.58,0.12c0.14,0.03,0.29,0.02,0.43,0.06
		c0.07,0.02,0.16,0.12,0.17,0.2c0.05,0.29,0.08,0.59,0.12,0.92c-0.11,0-0.2,0-0.29,0c-0.96-0.01-1.92-0.03-2.89-0.04
		c-0.28,0-0.56,0.02-0.84,0.04c-0.15,0.01-0.22-0.03-0.21-0.19c0.02-0.22,0.01-0.44,0.06-0.65C20.31,25.86,20.66,25.73,20.9,25.49z
		 M23.41,25.5c-0.49-0.36-0.97-0.23-1.43-0.22c-0.15,0-0.31,0.03-0.46,0.06c-0.16,0.03-0.23-0.02-0.23-0.19
		c0.01-0.35,0.01-0.7,0.02-1.05c0-0.08-0.01-0.16-0.03-0.23c-0.08-0.21,0-0.38,0.22-0.38c0.62-0.01,1.23,0.01,1.85,0.04
		c0.17,0.01,0.27,0.1,0.22,0.34c-0.07,0.34-0.05,0.7-0.07,1.05C23.47,25.09,23.44,25.27,23.41,25.5z M20.95,25.53
		c0.22,0.36,0.21,0.33,0.66,0.28c0.49-0.05,1-0.05,1.49-0.04c0.19,0,0.39,0.09,0.58,0.12c0.14,0.03,0.29,0.02,0.43,0.06
		c0.07,0.02,0.16,0.12,0.17,0.2c0.05,0.29,0.08,0.59,0.12,0.92c-0.11,0-0.2,0-0.29,0c-0.96-0.01-1.92-0.03-2.89-0.04
		c-0.28,0-0.56,0.02-0.84,0.04c-0.15,0.01-0.22-0.03-0.21-0.19c0.02-0.22,0.01-0.44,0.06-0.65c0.08-0.38,0.43-0.52,0.68-0.75
		C20.94,25.52,20.95,25.53,20.95,25.53z M21.98,25.28c-0.15,0-0.31,0.03-0.46,0.06c-0.16,0.03-0.23-0.02-0.23-0.19
		c0.01-0.35,0.01-0.7,0.02-1.05c0-0.08-0.01-0.16-0.03-0.23c-0.08-0.21,0-0.38,0.22-0.38c0.62-0.01,1.23,0.01,1.85,0.04
		c0.17,0.01,0.27,0.1,0.22,0.34c-0.07,0.34-0.05,0.7-0.07,1.05c-0.01,0.18-0.05,0.36-0.08,0.59C22.91,25.14,22.44,25.27,21.98,25.28
		z M21.25,23.07c-0.17,0-0.35-0.02-0.41-0.2c-0.07-0.2-0.04-0.41,0.12-0.56c0.05-0.05,0.16-0.06,0.24-0.06
		c0.81,0,1.62,0.01,2.43,0.01c0.25,0,0.35,0.08,0.37,0.34c0.02,0.27-0.08,0.42-0.33,0.44c-0.15,0.01-0.31,0-0.47,0
		c-0.27,0-0.55,0-0.82,0c0,0.01,0,0.01,0,0.02C22,23.07,21.63,23.07,21.25,23.07z"/>
</g>
</svg>
