<?xml version="1.0" encoding="utf-8"?>
<!-- Generator: Adobe Illustrator 28.1.0, SVG Export Plug-In . SVG Version: 6.00 Build 0)  -->
<svg version="1.1" id="Layer_1" xmlns="http://www.w3.org/2000/svg" xmlns:xlink="http://www.w3.org/1999/xlink" x="0px" y="0px"
	 viewBox="0 0 500 500" style="enable-background:new 0 0 500 500;" xml:space="preserve">
<style type="text/css">
	.st0{fill:#AC6AFF;}
</style>
<path class="st0" d="M297.49,325.99c36.67,0,66.5-29.83,66.5-66.5v-114c0-36.66-29.83-66.5-66.5-66.5H108.68
	c34.8-34.92,85.16-57,141.31-57c94.49,0,171,76.56,171,171l56.99,104.5v9.49c0,5.23-4.2,10.33-9.31,11.36l-38.19,7.65l-6.6,57.26
	c-2.42,20.75-21.45,37.74-42.34,37.74H307l-19,56.99h-152V362.5c-12.21-10.93-23.12-23.23-32.77-36.51H297.49z M267.7,216.75h-16.37
	l8.17-27.29L267.7,216.75z M145.5,169.25H60.82L22,108.62l24.01-15.36l30.39,47.49h69.58c2.37-18.65,18.25-33.24,37.52-33.24h114
	c20.91,0,38,17.1,38,38v114c0,20.89-17.09,38-38,38h-114c-19.26,0-35.15-14.6-37.52-33.25H76.4l-30.39,47.5L22,296.38l38.82-60.64
	h84.67v-19H22v-28.49h123.5V169.25z M241.34,250l4.27-14.25h27.78l4.28,14.25h19.82l-28.5-95h-19l-28.49,95H241.34z M183.42,250
	h18.99v-95h-18.99V250z"/>
</svg>
