<?xml version="1.0" encoding="utf-8"?>
<!-- Generator: Adobe Illustrator 28.1.0, SVG Export Plug-In . SVG Version: 6.00 Build 0)  -->
<svg version="1.1" id="Layer_1" xmlns="http://www.w3.org/2000/svg" xmlns:xlink="http://www.w3.org/1999/xlink" x="0px" y="0px"
	 viewBox="0 0 352.34 73.53" style="enable-background:new 0 0 352.34 73.53;" xml:space="preserve">
<style type="text/css">
	.st0{fill:url(#SVGID_1_);}
	.st1{fill:url(#SVGID_00000078043298082432187100000005012153867345030822_);}
</style>
<g>
	<linearGradient id="SVGID_1_" gradientUnits="userSpaceOnUse" x1="91.696" y1="50.5497" x2="348.1285" y2="50.5497">
		<stop  offset="6.357828e-07" style="stop-color:#CAB287"/>
		<stop  offset="1" style="stop-color:#AC6AFF"/>
	</linearGradient>
	<path class="st0" d="M245.39,50.12c2.6,0.06,4.75,0.24,6.75,1.27c2.39,1.23,3.69,3.21,3.73,5.8c0.04,2.69-1.36,4.71-3.7,6.04
		c-1.71,0.98-3.6,1.46-5.53,1.47c-7.04,0.06-14.09,0.03-21.13,0.06c-1.06,0.01-1.34-0.22-1.19-1.39c0.9-6.98,0.61-14,0.42-21.01
		c-0.05-1.65,0.04-3.36-0.47-4.99c-0.17-0.55-0.02-1.01,0.69-0.99c7.72,0.2,15.46-0.61,23.14,0.43c3.67,0.5,5.92,3.04,6.05,5.88
		c0.14,3.08-1.35,5.3-4.41,6.35C248.45,49.49,247.11,49.7,245.39,50.12z M238.79,52.4c0-0.01,0-0.02,0-0.04
		c-0.62,0-1.25-0.04-1.87,0.01c-1.84,0.14-4.26-0.83-5.37,0.43c-1.07,1.22-0.18,3.58-0.34,5.43c-0.11,1.24,0.37,1.62,1.59,1.6
		c3.31-0.06,6.62,0.04,9.92-0.05c1.67-0.04,3.38-0.14,4.9-0.97c2.27-1.23,2.35-4.12,0.14-5.45c-0.97-0.58-2.01-0.98-3.18-0.97
		C242.66,52.41,240.73,52.4,238.79,52.4z M238.11,47.63c0-0.01,0-0.03,0-0.04c1.99,0,3.98,0.08,5.97-0.02
		c2.17-0.11,3.65-1.34,3.76-2.91c0.12-1.71-1-2.83-3.33-3.3c-0.54-0.11-1.11-0.12-1.67-0.12c-2.3-0.01-4.6-0.01-6.9-0.01
		c-5.03,0-5,0-4.72,5.12c0.05,0.95,0.33,1.33,1.3,1.3C234.38,47.59,236.25,47.63,238.11,47.63z M156.92,59.23
		c-3.99,0-7.99,0-11.98,0c-4.32,0-4.27,0-4.31-4.3c-0.01-1.38,0.35-1.82,1.77-1.79c4.8,0.1,9.61,0.05,14.42,0.08
		c0.77,0.01,1.49-0.04,1.33-1.02c-0.24-1.51,0.71-3.17-0.59-4.53c-0.09-0.09-0.36-0.02-0.55,0c-3.98,0.53-7.98,0.24-11.96,0.22
		c-5.2-0.02-4.26,1.08-4.41-4.58c-0.03-1.2,0.48-1.46,1.56-1.45c5.55,0.05,11.11,0.07,16.66,0.02c1.15-0.01,2.67,0.88,3.32,0.05
		c0.71-0.89-0.26-2.35-0.3-3.59c-0.05-1.47-0.67-2.04-2.32-2.02c-7.42,0.12-14.85,0.04-22.28,0.07c-1.17,0-2.66-0.52-3.4,0.29
		c-0.45,0.5,0.2,1.97,0.35,3.01c0.02,0.12,0.02,0.25,0.02,0.37c-0.08,7.7,0.5,15.41-0.35,23.1c-0.14,1.25,0.21,1.61,1.46,1.6
		c8.49-0.04,16.98-0.04,25.46,0c1.06,0.01,1.62-0.26,1.78-1.34c0.23-1.58,0.54-3.15,0.88-5.08
		C161.16,59.27,159.04,59.23,156.92,59.23z M304.36,50.48c0.18,8.22-5.83,13.35-13.91,14.62c-3.58,0.56-7.09,0.28-10.53-0.74
		c-6.8-2.02-10.79-7.16-10.8-13.75c-0.02-6.62,3.91-11.8,10.69-13.84c5.63-1.69,11.21-1.48,16.57,1.07
		C301.68,40.38,304.27,44.67,304.36,50.48z M286.85,60.26c1.08,0.13,2.3-0.18,3.51-0.45c3.99-0.88,6.89-3.95,7.52-7.86
		c0.6-3.75-1.14-7.56-4.57-9.46c-4.31-2.38-8.77-2.26-13.06-0.02c-3.4,1.77-5.19,5.74-4.57,9.24
		C276.62,57.07,280.69,60.23,286.85,60.26z M182.86,64.75c0.67,0.01,0.98-0.38,1.3-0.88c2.23-3.49,5.22-6.33,7.95-9.39
		c0.71-0.8,1.17-0.67,1.8,0.02c2.73,2.98,5.69,5.76,7.83,9.24c0.29,0.47,0.48,1.01,1.2,1c2.52-0.02,5.04-0.01,7.54-0.01
		c0.05-0.7-0.31-0.9-0.55-1.16c-3.81-4.11-7.6-8.23-11.46-12.29c-0.82-0.87-0.89-1.37-0.01-2.24c2.16-2.15,4.24-4.39,6.28-6.65
		c1.72-1.9,3.35-3.88,5.18-6.02c-2.63,0-4.94,0.03-7.25-0.02c-0.8-0.02-1.24,0.31-1.63,0.96c-1.92,3.17-4.71,5.62-7.06,8.43
		c-0.71,0.85-1.22,0.75-1.94-0.02c-2.49-2.7-5.1-5.29-7.1-8.4c-0.27-0.41-0.44-0.93-1.05-0.94c-2.57-0.01-5.15,0-8,0
		c3.87,4.29,7.37,8.41,11.23,12.21c1.05,1.03,1.37,1.87,0.02,3.01c-1.23,1.03-2.22,2.35-3.31,3.54c-2.83,3.11-5.66,6.21-8.73,9.59
		C177.91,64.74,180.39,64.73,182.86,64.75z M319.52,36.39c-0.62,0-1.46-0.32-1.67,0.7c-0.28,1.4-0.55,2.8-0.8,4.2
		c-0.15,0.83,0.21,1.15,1.05,0.98c3.21-0.65,6.47-0.14,9.7-0.35c1.39-0.09,1.64,0.49,1.63,1.73c-0.06,5.22-0.11,10.45,0,15.67
		c0.04,1.81-1.62,4.17-0.02,5.22c1.36,0.89,3.75,0.2,5.68,0.21c0.12,0,0.25-0.01,0.37,0c0.71,0.04,0.93-0.16,0.81-0.97
		c-1.01-6.8-0.28-13.65-0.52-20.48c-0.04-1.09,0.39-1.41,1.42-1.36c3.23,0.17,6.49-0.32,9.7,0.35c1,0.21,1.43-0.15,1.21-1.17
		c-0.22-1.03-0.59-2.05-0.65-3.09c-0.08-1.43-0.8-1.69-2.07-1.67c-4.24,0.06-8.49,0.02-12.73,0.02
		C328.26,36.38,323.89,36.37,319.52,36.39z M91.88,63.76c-0.28,1.58,0.34,1.45,1.44,1.22c3.93-0.84,7.88-0.8,11.88-0.37
		c3.44,0.37,6.84,1.21,10.38,0.57c3.5-0.64,3.52-0.49,3.72-4.12c0.03-0.55,0.15-1.1,0.22-1.66c0.08-0.69-0.13-1.11-0.93-0.92
		c-6.03,1.43-12.17,0.49-18.25,0.8c-1.31,0.07-1.74-0.37-1.69-1.68c0.24-6.75-0.48-13.54,0.6-20.26c0.14-0.84-0.24-0.96-0.9-0.96
		c-1.93,0.01-3.87,0.01-5.8,0c-0.73,0-0.99,0.22-0.81,1.01c0.99,4.35,0.4,8.78,0.6,13.04C92.22,54.96,92.66,59.39,91.88,63.76z"/>
	
		<linearGradient id="SVGID_00000020396444952022064730000017725378415597738892_" gradientUnits="userSpaceOnUse" x1="72.6994" y1="37.2745" x2="3.1315" y2="37.2745">
		<stop  offset="0.2379" style="stop-color:#CAB287"/>
		<stop  offset="0.3757" style="stop-color:#C9B08B"/>
		<stop  offset="0.5153" style="stop-color:#C6A897"/>
		<stop  offset="0.6558" style="stop-color:#C19CAC"/>
		<stop  offset="0.797" style="stop-color:#BA8BC8"/>
		<stop  offset="0.9373" style="stop-color:#B175EC"/>
		<stop  offset="1" style="stop-color:#AC6AFF"/>
	</linearGradient>
	<path style="fill:url(#SVGID_00000020396444952022064730000017725378415597738892_);" d="M16.61,11.34
		c2.56-2.98,5.54-4.73,8.73-6.1c10.24-4.42,22.72-3.42,31.07,4.95c4.68,4.69,7.19,10.39,7.66,16.94c0.13,1.8,1,3.17,1.78,4.63
		c1.97,3.67,3.99,7.31,6.01,10.95c0.43,0.77,0.78,1.57,0.82,2.45c0.06,1.46-0.41,2.57-2.09,2.74c-0.06,0.01-0.12,0.01-0.19,0.02
		c-5.11,1.01-5.06,1.01-5.48,6.27c-0.19,2.44-0.18,4.98-2.13,6.95c-1.4,1.42-3,2.16-4.99,2.15c-3.18-0.01-6.36,0.04-9.55-0.02
		c-1.13-0.02-1.71,0.37-2.03,1.44c-0.61,2.02-1.33,4.01-1.97,6.02c-0.26,0.82-0.69,1.17-1.61,1.17c-6.93-0.03-13.85-0.04-20.78,0
		c-1.22,0.01-1.45-0.49-1.44-1.56c0.04-4.72-0.02-9.45,0.04-14.18c0.01-1.21-0.28-2.1-1.22-2.93c-0.97-0.86-1.77-1.92-2.62-2.91
		c-0.3-0.36-0.88-0.7-0.61-1.24c0.26-0.54,0.9-0.3,1.37-0.3c9.17-0.01,18.34,0.01,27.51-0.02C49.95,48.75,53.61,46,55,41.42
		c0.3-0.98,0.3-1.96,0.3-2.95c0.01-5.53,0.03-11.07,0-16.6c-0.03-6.34-4.19-10.5-10.54-10.52c-8.67-0.03-17.34-0.01-26.02-0.01
		C18.14,11.34,17.55,11.34,16.61,11.34z M44.95,44.55c3.61-0.05,6.1-2.52,6.13-6.13c0.04-5.6,0.05-11.2,0-16.8
		c-0.03-3.61-2.54-6.08-6.16-6.1c-5.56-0.03-11.11-0.01-16.67-0.01c-2.8,0-4.82,1.25-5.8,3.86c-0.38,1-0.84,1.34-1.88,1.32
		c-2.56-0.06-5.12-0.07-7.68,0.01c-1.03,0.03-1.61-0.37-2.11-1.18c-1.01-1.64-2.11-3.23-3.1-4.88c-0.56-0.93-1.12-1.25-2.05-0.5
		c-0.43,0.35-0.91,0.67-1.41,0.92c-0.98,0.49-0.94,1.01-0.36,1.87c1.57,2.32,3.06,4.69,4.52,7.08c0.52,0.86,1.17,1.15,2.15,1.14
		c3.25-0.04,6.49,0.01,9.74-0.03c1.1-0.02,1.74,0.13,1.72,1.49c-0.02,1.39-0.84,1.26-1.73,1.26c-5.18,0-10.36,0.07-15.54-0.04
		c-2.1-0.04-1.47,1.32-1.54,2.36c-0.07,1.12-0.28,2.18,1.59,2.13c4.99-0.13,9.99-0.07,14.98-0.02c0.9,0.01,2.21-0.6,2.24,1.29
		c0.03,1.81-1.17,1.4-2.15,1.41c-3.06,0.02-6.12,0.03-9.18,0C9.73,34.94,9,35.08,8.45,35.98c-1.52,2.5-3.08,4.97-4.72,7.39
		c-0.54,0.81-0.35,1.18,0.38,1.58c0.49,0.27,0.97,0.57,1.41,0.92c0.95,0.76,1.58,0.6,2.2-0.47c0.96-1.67,2.1-3.24,3.09-4.89
		c0.51-0.84,1.13-1.16,2.13-1.13c2.49,0.07,4.99,0.06,7.49,0.01c1.07-0.02,1.65,0.24,2.04,1.36c0.91,2.58,2.92,3.78,5.62,3.81
		c2.75,0.03,5.49,0.01,8.24,0.01C39.21,44.56,42.08,44.58,44.95,44.55z M42,36.43c-0.28-1.71-1.54-1.42-2.7-1.47
		c-1.16-0.05-2.04,0.1-2.4,1.44c-0.4,1.44-1.69,0.85-2.51,0.69c-0.97-0.18-0.31-1.02-0.16-1.52c1.12-3.87,2.32-7.71,3.41-11.59
		c0.3-1.08,1-1.05,1.84-1.08c0.89-0.03,1.53,0.1,1.82,1.11c1.13,3.93,2.28,7.85,3.49,11.76c0.36,1.16,0.21,1.71-0.87,1.44
		C42.98,37.19,42.15,37.36,42,36.43z M27.85,24.33c-0.05-1.19,0.45-1.47,1.53-1.45c0.99,0.02,1.47,0.24,1.45,1.35
		c-0.05,3.9-0.05,7.81,0,11.72c0.01,1.17-0.5,1.45-1.57,1.49c-1.24,0.05-1.43-0.54-1.4-1.58c0.06-1.92,0.02-3.84,0.02-5.76
		C27.87,28.17,27.93,26.25,27.85,24.33z M38.58,30.87c-0.15,0.45-0.44,1.02,0.18,1.27c0.43,0.17,1.02,0.18,1.44,0.01
		c0.68-0.27,0.23-0.82,0.1-1.26c-0.21-0.74-0.45-1.46-0.84-2.69C39.06,29.43,38.81,30.15,38.58,30.87z"/>
</g>
</svg>
