<?xml version="1.0" encoding="utf-8"?>
<!-- Generator: Adobe Illustrator 28.1.0, SVG Export Plug-In . SVG Version: 6.00 Build 0)  -->
<svg version="1.1" id="Layer_1" xmlns="http://www.w3.org/2000/svg" xmlns:xlink="http://www.w3.org/1999/xlink" x="0px" y="0px"
	 viewBox="0 0 500 500" style="enable-background:new 0 0 500 500;" xml:space="preserve">
<style type="text/css">
	.st0{fill:#FFFFFF;}
</style>
<path class="st0" d="M297.5,326c36.7,0,66.5-29.8,66.5-66.5v-114c0-36.7-29.8-66.5-66.5-66.5H108.7c34.8-34.9,85.2-57,141.3-57
	c94.5,0,171,76.6,171,171l57,104.5v9.5c0,5.2-4.2,10.3-9.3,11.4l-38.2,7.6l-6.6,57.3c-2.4,20.8-21.5,37.7-42.3,37.7H307l-19,57H136
	V362.5c-12.2-10.9-23.1-23.2-32.8-36.5H297.5z M267.7,216.8h-16.4l8.2-27.3L267.7,216.8z M145.5,169.2H60.8L22,108.6l24-15.4
	l30.4,47.5H146c2.4-18.7,18.2-33.2,37.5-33.2h114c20.9,0,38,17.1,38,38v114c0,20.9-17.1,38-38,38h-114c-19.3,0-35.1-14.6-37.5-33.2
	H76.4L46,311.8l-24-15.4l38.8-60.6h84.7v-19H22v-28.5h123.5V169.2z M241.3,250l4.3-14.2h27.8l4.3,14.2h19.8L269,155h-19l-28.5,95
	H241.3z M183.4,250h19v-95h-19V250z"/>
</svg>
