<?xml version="1.0" encoding="utf-8"?>
<!-- Generator: Adobe Illustrator 28.1.0, SVG Export Plug-In . SVG Version: 6.00 Build 0)  -->
<svg version="1.1" id="Layer_1" xmlns="http://www.w3.org/2000/svg" xmlns:xlink="http://www.w3.org/1999/xlink" x="0px" y="0px"
	 viewBox="0 0 500 500" style="enable-background:new 0 0 500 500;" xml:space="preserve">
<style type="text/css">
	.st0{fill:#CAB286;}
</style>
<path class="st0" d="M250,491.3C116.7,491.3,8.7,382.5,8.7,250C8.7,117.5,116.7,8.7,250,8.7c133.3,0,241.3,108,241.3,241.3
	C491.3,383.3,382.5,491.3,250,491.3z M250,23.6C124.9,23.6,23.6,124.9,23.6,250c0,125.1,101.3,226.4,226.4,226.4
	c125.1,0,226.4-101.3,226.4-226.4C476.4,124.9,374.3,23.6,250,23.6z M141.6,373.8c-1.6,0-3-0.1-4.4-0.3c-1.3-0.2-2.7-0.4-4-0.6
	c-1.3-0.2-2.9-0.3-4.6-0.3c-1.9,0-3.7,0.1-5.2,0.4c-1.5,0.3-2.8,0.5-3.8,0.8c0.2-0.8,0.4-2,0.6-3.4c0.1-1.4,0.2-2.8,0.2-4.3v-15.2
	c0-1.4-0.1-2.7-0.2-4c-0.2-1.2-0.3-2.3-0.6-3.1h8c-0.2,0.8-0.4,1.9-0.5,3.4c-0.2,1.4-0.2,2.9-0.2,4.3v16h12.7c1.8,0,3.5-0.1,5-0.3
	c1.6-0.2,2.8-0.5,3.6-0.9l-0.4,6.4c-0.5,0.1-1.4,0.3-2.5,0.5C144.2,373.6,142.9,373.8,141.6,373.8z M162.7,373.1
	c0.5-1.7,0.8-4.1,0.8-7v-15.2c0-1.4-0.1-2.7-0.2-4c-0.2-1.2-0.3-2.3-0.6-3.1h28.6l1,6.3c-0.5-0.2-1.2-0.4-2.1-0.5
	c-0.9-0.1-2.1-0.2-3.6-0.2H170v6.3h13.4c1.9,0,3.4-0.1,4.4-0.2v5.9c-1-0.2-2.5-0.2-4.4-0.2H170v6.4h17c1.6,0,3-0.1,4-0.3
	c1-0.2,1.8-0.5,2.4-0.8l-1.2,6.6H162.7z M205.2,373.1c0.7-0.6,1.5-1.4,2.4-2.4c0.9-1,1.8-2.1,2.8-3.3l8.7-9.3l-8-8.6
	c-1-1.2-1.9-2.3-2.7-3.2c-0.8-1-1.6-1.8-2.4-2.4h8.9c0.3,0.6,0.7,1.2,1.1,1.9c0.5,0.7,1.1,1.6,2,2.7l5.5,6h0.4l5.5-6
	c0.9-1,1.5-1.9,2-2.6c0.5-0.7,0.9-1.3,1.2-1.9h8.8c-0.8,0.7-1.6,1.5-2.4,2.4c-0.8,0.9-1.7,2-2.7,3.2l-8,8.6l8.7,9.3
	c1,1.2,1.9,2.3,2.8,3.3c0.9,1,1.7,1.8,2.4,2.4h-8.9c-0.3-0.6-0.7-1.3-1.2-2c-0.5-0.7-1.2-1.6-2-2.7l-6.2-6.7h-0.3l-6.1,6.7
	c-0.9,1.1-1.5,2-2,2.7c-0.5,0.7-0.9,1.4-1.3,2H205.2z M255.5,373.1c0.2-0.8,0.4-1.8,0.6-3c0.1-1.2,0.2-2.5,0.2-4v-15.2
	c0-1.4-0.1-2.7-0.2-4c-0.1-1.2-0.3-2.3-0.5-3.1h21.1c1.8,0,3.5,0.3,5,0.8c1.5,0.5,2.6,1.3,3.5,2.4c0.9,1,1.3,2.3,1.3,3.9
	c0,1.3-0.4,2.5-1.1,3.5c-0.8,1-1.8,1.8-3,2.4c-1.3,0.6-2.7,0.8-4.4,0.8h-0.4v0.4h0.8c1.8,0,3.5,0.3,5,0.8c1.5,0.5,2.6,1.3,3.5,2.4
	c0.9,1.1,1.3,2.4,1.3,4.1c0,1.7-0.5,3.1-1.4,4.2c-0.9,1.1-2.2,2-3.8,2.6c-1.6,0.6-3.5,0.9-5.5,0.9H255.5z M262.8,355.6h11.9
	c1.5,0,2.8-0.3,3.9-0.9c1.1-0.6,1.6-1.4,1.6-2.5c0-1.1-0.5-1.9-1.6-2.5c-1-0.6-2.3-0.8-3.8-0.8h-11.9V355.6z M262.8,368h12.6
	c1.8,0,3.3-0.3,4.5-1c1.2-0.7,1.7-1.6,1.7-2.8c0-1.2-0.6-2.2-1.8-2.9c-1.2-0.7-2.7-1-4.5-1h-12.5V368z M319.8,373.7
	c-3.5,0-6.6-0.6-9.3-1.8c-2.7-1.2-4.9-2.9-6.4-5.2c-1.6-2.3-2.3-5-2.3-8.2c0-3.2,0.8-5.9,2.3-8.2c1.6-2.3,3.7-4,6.4-5.2
	c2.7-1.2,5.8-1.8,9.3-1.8c3.5,0,6.6,0.6,9.3,1.8c2.7,1.2,4.9,3,6.4,5.2c1.6,2.3,2.4,5,2.4,8.2c0,3.2-0.8,5.9-2.4,8.2
	c-1.6,2.3-3.7,4-6.4,5.2C326.4,373.1,323.3,373.7,319.8,373.7z M319.8,368.6c2.2,0,4.2-0.4,5.9-1.2c1.7-0.8,3.1-2,4.1-3.5
	s1.5-3.3,1.5-5.3c0-2.1-0.5-3.9-1.5-5.4c-1-1.5-2.4-2.6-4.1-3.4c-1.7-0.8-3.7-1.2-5.9-1.2c-2.2,0-4.1,0.4-5.9,1.2
	c-1.7,0.8-3.1,2-4.1,3.4c-1,1.5-1.5,3.3-1.5,5.4c0,2.1,0.5,3.8,1.5,5.3s2.4,2.7,4.1,3.5C315.7,368.2,317.6,368.6,319.8,368.6z
	 M362.8,373.1c0.2-0.8,0.4-1.9,0.5-3.1c0.1-1.2,0.2-2.5,0.2-4v-16.5h-7.2c-1.4,0-2.5,0.1-3.3,0.2c-0.8,0.1-1.6,0.3-2.4,0.5l1.3-6.4
	h29.8l1.3,6.4c-0.7-0.2-1.5-0.4-2.3-0.5c-0.9-0.1-2-0.2-3.3-0.2H370v16.5c0,1.4,0.1,2.8,0.2,4c0.1,1.2,0.3,2.2,0.6,3.1H362.8z
	 M128.9,399.1c0.2-0.3,0.5-0.7,0.8-1.2c0.3-0.5,0.6-1,0.8-1.5l3-5.8c0.3-0.5,0.5-1,0.6-1.5c0.2-0.5,0.3-0.9,0.3-1.2h3.9
	c0.1,0.4,0.2,0.8,0.3,1.3c0.2,0.5,0.3,1,0.5,1.4l3.1,5.8c0.3,0.5,0.5,1,0.8,1.5c0.3,0.5,0.5,0.9,0.8,1.2h-3.1c0-0.2-0.1-0.4-0.2-0.7
	c-0.1-0.3-0.3-0.6-0.5-1l-0.5-0.8h-6.3l-0.5,0.9c-0.2,0.4-0.4,0.7-0.5,1c-0.1,0.3-0.2,0.5-0.2,0.7H128.9z M134.1,394.6h4.5l-1.5-2.9
	c-0.1-0.3-0.3-0.6-0.4-0.9c-0.1-0.3-0.2-0.6-0.3-0.9h-0.1c-0.1,0.3-0.2,0.6-0.3,0.9c-0.1,0.3-0.2,0.6-0.4,0.9L134.1,394.6z
	 M154.3,399.3c-0.6,0-1.3-0.1-2.1-0.1c-0.8-0.1-1.5-0.2-2.2-0.4c-0.7-0.2-1.4-0.4-2-0.6l0.1-2.5c0.8,0.5,1.8,0.9,2.8,1.2
	c1.1,0.3,2.2,0.4,3.3,0.4c1,0,1.8-0.1,2.5-0.3c0.6-0.2,1-0.6,1-1c0-0.3-0.1-0.5-0.4-0.7c-0.3-0.2-0.6-0.3-1.1-0.4
	c-0.4-0.1-1-0.2-1.5-0.2c-0.6-0.1-1.1-0.1-1.7-0.2c-0.6-0.1-1.2-0.2-1.8-0.3c-0.6-0.2-1.1-0.3-1.5-0.6c-0.4-0.2-0.8-0.6-1.1-1
	c-0.3-0.4-0.4-0.9-0.4-1.4c0-0.7,0.3-1.3,0.8-1.8c0.5-0.5,1.2-0.9,2.1-1.1c0.9-0.2,1.9-0.4,2.9-0.4c0.6,0,1.2,0,1.8,0.1
	c0.6,0.1,1.2,0.2,1.8,0.3c0.6,0.1,1,0.3,1.5,0.5v2.4c-0.6-0.3-1.3-0.6-2.2-0.8c-0.9-0.2-1.8-0.3-2.8-0.3c-0.6,0-1.2,0-1.7,0.1
	c-0.5,0.1-0.9,0.2-1.2,0.4c-0.3,0.2-0.5,0.4-0.5,0.7c0,0.3,0.1,0.6,0.4,0.7c0.3,0.2,0.6,0.3,1.1,0.4c0.5,0.1,1,0.2,1.5,0.3
	c0.6,0.1,1.2,0.1,1.8,0.2c0.6,0.1,1.2,0.2,1.7,0.3c0.6,0.1,1.1,0.3,1.5,0.6c0.5,0.2,0.8,0.5,1.1,0.9c0.3,0.4,0.4,0.8,0.4,1.4
	c0,0.7-0.2,1.3-0.8,1.9c-0.5,0.5-1.2,0.9-2.1,1.2C156.6,399.2,155.5,399.3,154.3,399.3z M165.9,399.1c0.1-0.3,0.2-0.7,0.2-1.1
	c0.1-0.5,0.1-1,0.1-1.5v-5.8c0-0.5,0-1-0.1-1.5c-0.1-0.5-0.1-0.9-0.2-1.2h3.1c-0.1,0.3-0.2,0.7-0.2,1.2c0,0.5-0.1,1-0.1,1.5v5.8
	c0,0.5,0,1.1,0.1,1.5c0.1,0.5,0.1,0.8,0.2,1.1H165.9z M181,399.3c-0.6,0-1.3-0.1-2.1-0.1c-0.8-0.1-1.5-0.2-2.2-0.4
	c-0.7-0.2-1.4-0.4-2-0.6l0.1-2.5c0.8,0.5,1.8,0.9,2.8,1.2c1.1,0.3,2.2,0.4,3.3,0.4c1,0,1.8-0.1,2.5-0.3c0.6-0.2,1-0.6,1-1
	c0-0.3-0.1-0.5-0.4-0.7c-0.3-0.2-0.6-0.3-1.1-0.4c-0.4-0.1-1-0.2-1.5-0.2c-0.6-0.1-1.1-0.1-1.7-0.2c-0.6-0.1-1.2-0.2-1.8-0.3
	c-0.6-0.2-1.1-0.3-1.5-0.6c-0.4-0.2-0.8-0.6-1.1-1c-0.3-0.4-0.4-0.9-0.4-1.4c0-0.7,0.3-1.3,0.8-1.8c0.5-0.5,1.2-0.9,2.1-1.1
	c0.9-0.2,1.9-0.4,2.9-0.4c0.6,0,1.2,0,1.8,0.1c0.6,0.1,1.2,0.2,1.8,0.3c0.6,0.1,1,0.3,1.5,0.5v2.4c-0.6-0.3-1.3-0.6-2.2-0.8
	c-0.9-0.2-1.8-0.3-2.8-0.3c-0.6,0-1.2,0-1.7,0.1c-0.5,0.1-0.9,0.2-1.2,0.4c-0.3,0.2-0.5,0.4-0.5,0.7c0,0.3,0.1,0.6,0.4,0.7
	c0.3,0.2,0.6,0.3,1.1,0.4c0.5,0.1,1,0.2,1.5,0.3c0.6,0.1,1.2,0.1,1.8,0.2c0.6,0.1,1.2,0.2,1.7,0.3c0.6,0.1,1.1,0.3,1.5,0.6
	c0.5,0.2,0.8,0.5,1.1,0.9c0.3,0.4,0.4,0.8,0.4,1.4c0,0.7-0.2,1.3-0.8,1.9c-0.5,0.5-1.2,0.9-2.1,1.2
	C183.2,399.2,182.2,399.3,181,399.3z M196.3,399.1c0.1-0.3,0.2-0.7,0.2-1.2c0.1-0.5,0.1-1,0.1-1.5v-6.3h-2.8c-0.5,0-0.9,0-1.3,0.1
	c-0.3,0-0.6,0.1-0.9,0.2l0.5-2.4h11.3l0.5,2.4c-0.3-0.1-0.6-0.1-0.9-0.2c-0.3-0.1-0.7-0.1-1.3-0.1h-2.8v6.3c0,0.5,0,1,0.1,1.5
	c0.1,0.5,0.1,0.8,0.2,1.2H196.3z M209.4,399.1c0.2-0.7,0.3-1.5,0.3-2.7v-5.8c0-0.5,0-1-0.1-1.5c-0.1-0.5-0.1-0.9-0.2-1.2h10.9
	l0.4,2.4c-0.2-0.1-0.5-0.2-0.8-0.2c-0.3-0.1-0.8-0.1-1.4-0.1h-6.4v2.4h5.1c0.7,0,1.3,0,1.7-0.1v2.2c-0.4-0.1-0.9-0.1-1.7-0.1h-5.1
	v2.4h6.5c0.6,0,1.1,0,1.5-0.1c0.4-0.1,0.7-0.2,0.9-0.3l-0.5,2.5H209.4z M226.8,399.1c0.1-0.3,0.2-0.7,0.2-1.1c0.1-0.5,0.1-1,0.1-1.5
	v-5.8c0-1.1-0.1-2-0.3-2.7h2.9l7.4,7.8h0.2v-5.2c0-0.5,0-1-0.1-1.5c-0.1-0.5-0.1-0.8-0.2-1.1h3c-0.1,0.3-0.2,0.7-0.2,1.2
	c0,0.5-0.1,1-0.1,1.5v8.5h-2.3l-7.7-8.1h-0.2v5.2c0,0.6,0,1.1,0.1,1.6c0.1,0.5,0.1,0.9,0.2,1.2H226.8z M250.1,399.1
	c0.1-0.3,0.2-0.7,0.2-1.2c0.1-0.5,0.1-1,0.1-1.5v-6.3h-2.8c-0.5,0-0.9,0-1.3,0.1c-0.3,0-0.6,0.1-0.9,0.2l0.5-2.4h11.3l0.5,2.4
	c-0.3-0.1-0.6-0.1-0.9-0.2c-0.3-0.1-0.7-0.1-1.3-0.1h-2.8v6.3c0,0.5,0,1,0.1,1.5c0.1,0.5,0.1,0.8,0.2,1.2H250.1z M263.2,399.1
	c0.2-0.7,0.3-1.5,0.3-2.7v-5.8c0-0.5,0-1-0.1-1.5c-0.1-0.5-0.1-0.9-0.2-1.2h10.9l0.4,2.4c-0.2-0.1-0.5-0.2-0.8-0.2
	c-0.3-0.1-0.8-0.1-1.4-0.1H266v2.4h5.1c0.7,0,1.3,0,1.7-0.1v2.2c-0.4-0.1-0.9-0.1-1.7-0.1H266v2.4h6.5c0.6,0,1.1,0,1.5-0.1
	c0.4-0.1,0.7-0.2,0.9-0.3l-0.5,2.5H263.2z M297.3,399.3c-0.6,0-1.2,0-1.7-0.1c-0.5-0.1-1-0.1-1.5-0.2c-0.5-0.1-1.1-0.1-1.8-0.1
	c-0.7,0-1.4,0.1-2,0.2c-0.6,0.1-1.1,0.2-1.4,0.3c0.1-0.3,0.2-0.7,0.2-1.3c0.1-0.5,0.1-1.1,0.1-1.6v-5.8c0-0.5,0-1-0.1-1.5
	c-0.1-0.5-0.1-0.9-0.2-1.2h3.1c-0.1,0.3-0.2,0.7-0.2,1.3c-0.1,0.6-0.1,1.1-0.1,1.6v6.1h4.9c0.7,0,1.3,0,1.9-0.1
	c0.6-0.1,1-0.2,1.4-0.3l-0.1,2.5c-0.2,0-0.5,0.1-1,0.2C298.3,399.3,297.8,399.3,297.3,399.3z M305.4,399.1c0.2-0.7,0.3-1.5,0.3-2.7
	v-5.8c0-0.5,0-1-0.1-1.5c-0.1-0.5-0.1-0.9-0.2-1.2h10.9l0.4,2.4c-0.2-0.1-0.5-0.2-0.8-0.2c-0.3-0.1-0.8-0.1-1.4-0.1h-6.4v2.4h5.1
	c0.7,0,1.3,0,1.7-0.1v2.2c-0.4-0.1-0.9-0.1-1.7-0.1h-5.1v2.4h6.5c0.6,0,1.1,0,1.5-0.1c0.4-0.1,0.7-0.2,0.9-0.3l-0.5,2.5H305.4z
	 M329.4,399.3c-1.4,0-2.6-0.2-3.7-0.7c-1.1-0.5-1.9-1.1-2.5-2c-0.6-0.9-0.9-1.9-0.9-3.1c0-1.2,0.3-2.2,0.9-3.1
	c0.6-0.9,1.4-1.5,2.5-2c1.1-0.5,2.3-0.7,3.7-0.7c0.9,0,1.8,0.1,2.6,0.2c0.8,0.2,1.5,0.3,2.2,0.6l-0.1,2.2c-0.3-0.2-0.7-0.4-1.2-0.5
	c-0.5-0.1-1-0.2-1.5-0.3c-0.5-0.1-1.1-0.1-1.6-0.1c-1,0-1.8,0.2-2.6,0.5c-0.8,0.3-1.3,0.7-1.8,1.3c-0.4,0.6-0.6,1.2-0.6,2
	c0,0.8,0.2,1.4,0.6,1.9c0.4,0.5,1,1,1.7,1.2c0.7,0.3,1.5,0.4,2.5,0.4c0.7,0,1.4-0.1,2.1-0.3c0.7-0.2,1.2-0.5,1.6-0.9v-1.3h-2.7
	c-0.2,0-0.5,0-0.8,0c-0.3,0-0.5,0.1-0.6,0.1l0.1-2.1h6.4v4.6c-0.6,0.6-1.4,1.2-2.5,1.6C331.8,399.1,330.6,399.3,329.4,399.3z
	 M339.8,399.1c0.2-0.3,0.5-0.7,0.8-1.2c0.3-0.5,0.6-1,0.8-1.5l3-5.8c0.3-0.5,0.5-1,0.6-1.5c0.2-0.5,0.3-0.9,0.3-1.2h3.9
	c0.1,0.4,0.2,0.8,0.3,1.3c0.2,0.5,0.3,1,0.5,1.4l3.1,5.8c0.3,0.5,0.5,1,0.8,1.5c0.3,0.5,0.5,0.9,0.8,1.2h-3.1c0-0.2-0.1-0.4-0.2-0.7
	c-0.1-0.3-0.3-0.6-0.5-1l-0.5-0.8h-6.3l-0.5,0.9c-0.2,0.4-0.4,0.7-0.5,1c-0.1,0.3-0.2,0.5-0.2,0.7H339.8z M345,394.6h4.5l-1.5-2.9
	c-0.1-0.3-0.3-0.6-0.4-0.9c-0.1-0.3-0.2-0.6-0.3-0.9h-0.1c-0.1,0.3-0.2,0.6-0.3,0.9c-0.1,0.3-0.2,0.6-0.4,0.9L345,394.6z M368,399.3
	c-0.6,0-1.2,0-1.7-0.1c-0.5-0.1-1-0.1-1.5-0.2c-0.5-0.1-1.1-0.1-1.8-0.1c-0.7,0-1.4,0.1-2,0.2c-0.6,0.1-1.1,0.2-1.4,0.3
	c0.1-0.3,0.2-0.7,0.2-1.3c0.1-0.5,0.1-1.1,0.1-1.6v-5.8c0-0.5,0-1-0.1-1.5c-0.1-0.5-0.1-0.9-0.2-1.2h3.1c-0.1,0.3-0.2,0.7-0.2,1.3
	c-0.1,0.6-0.1,1.1-0.1,1.6v6.1h4.9c0.7,0,1.3,0,1.9-0.1c0.6-0.1,1-0.2,1.4-0.3l-0.1,2.5c-0.2,0-0.5,0.1-1,0.2
	C368.9,399.3,368.5,399.3,368,399.3z M274.2,250.2c18.7,0,33.9-15.2,33.9-33.9v-58.1c0-18.7-15.2-33.9-33.9-33.9H178
	c17.7-17.8,43.4-29,72-29c48.2,0,87.1,39,87.1,87.1l29,53.2v4.8c0,2.7-2.1,5.3-4.7,5.8l-19.5,3.9l-3.4,29.2
	c-1.2,10.6-10.9,19.2-21.6,19.2h-38l-9.7,29h-77.5v-58.8c-6.2-5.6-11.8-11.8-16.7-18.6H274.2z M259,194.5h-8.3l4.2-13.9L259,194.5z
	 M196.8,170.3h-43.1l-19.8-30.9l12.2-7.8l15.5,24.2H197c1.2-9.5,9.3-16.9,19.1-16.9h58.1c10.7,0,19.4,8.7,19.4,19.4v58.1
	c0,10.6-8.7,19.4-19.4,19.4h-58.1c-9.8,0-17.9-7.4-19.1-16.9h-35.5l-15.5,24.2l-12.2-7.8l19.8-30.9h43.1v-9.7h-62.9V180h62.9V170.3z
	 M245.6,211.5l2.2-7.3h14.2l2.2,7.3h10.1l-14.5-48.4H250l-14.5,48.4H245.6z M216.1,211.5h9.7v-48.4h-9.7V211.5z"/>
</svg>
